<?xml version="1.0" encoding="UTF-8"?>
<svg xmlns="http://www.w3.org/2000/svg" viewBox="0 0 2048 2048">
  <g id="bounds">
    <path d="M0,2048h2048V0H0v2048ZM156.7,1711.29c1.62-10.25,2.54-20.58,3.15-30.93h0c1.47-24.93,1.14-50.02,4.41-74.76,5.68-43.05,22.95-85.38,53.36-116.39,13.9-14.17,30.06-25.81,44.59-39.27,15.35-14.21,21.94-28.63,32.32-45.76.21-.34.41-.67.64-1.01,1.1-1.71,2.32-3.39,3.67-5.03,11.59-14.26,31.4-26.28,45-38.33.49-.44.98-.88,1.45-1.31,1.37-1.26,2.74-2.53,4.11-3.82.38-.35.77-.71,1.16-1.08.39-.36.78-.73,1.16-1.09,1.23-1.17,2.46-2.33,3.68-3.51.55-.53,1.11-1.06,1.66-1.6.59-.56,1.17-1.13,1.76-1.72,1.18-1.15,2.35-2.3,3.52-3.47.73-.72,1.45-1.44,2.17-2.17,1.09-1.11,2.18-2.21,3.26-3.32.74-.76,1.46-1.51,2.19-2.27,1.05-1.1,2.11-2.2,3.15-3.31.71-.75,1.42-1.51,2.13-2.27,1.05-1.14,2.1-2.28,3.14-3.43.66-.73,1.32-1.45,1.97-2.18,1.13-1.26,2.24-2.53,3.35-3.8.27-.31.54-.62.82-.92.44-.51.88-1.02,1.31-1.53.65-.75,1.29-1.5,1.92-2.25.8-.95,1.6-1.91,2.39-2.87,1.74-2.11,3.48-4.19,5.23-6.25.23-.3.47-.59.73-.88.25-.29.49-.58.74-.87.64-.75,1.27-1.5,1.9-2.24.64-.75,1.27-1.49,1.9-2.23.53-.63,1.07-1.24,1.61-1.86,1.28-1.49,2.55-2.95,3.82-4.4.23-.27.46-.53.69-.79.23-.27.47-.54.69-.79,1.53-1.74,3.06-3.45,4.57-5.16.36-.41.71-.8,1.08-1.2,1.62-1.81,3.25-3.62,4.87-5.39.9-.98,1.79-1.96,2.69-2.93.89-.96,1.79-1.93,2.68-2.89,1.77-1.91,3.55-3.81,5.33-5.67.18-.21.38-.41.57-.6,1.69-1.78,3.38-3.54,5.06-5.28.03-.04.06-.07.1-.11.9-.93,1.79-1.85,2.68-2.76,2.68-2.75,5.34-5.44,8-8.07,1.76-1.76,3.53-3.49,5.27-5.21.97-.94,1.94-1.88,2.9-2.81,1.65-1.6,3.3-3.17,4.92-4.72.86-.83,1.73-1.64,2.58-2.44,1.13-1.06,2.25-2.11,3.37-3.15.74-.7,1.49-1.39,2.24-2.08l.75-.69.1-.1s.09-.08.14-.13c.03-.03.07-.06.11-.1.57-.53,1.14-1.06,1.73-1.59.37-.34.75-.69,1.13-1.03.15-.14.3-.27.45-.4.27-.26.55-.51.83-.75.81-.75,1.64-1.5,2.46-2.23.62-.56,1.24-1.11,1.86-1.67.04-.04.07-.06.1-.09-1.13-35.3,10.13-67.35,13.24-75.67,18.21-48.89,42.62-51.16,92.28-119.08,19.06-26.06,50.02-69.06,71.47-131.02,10.54-30.48,31.34-92.73,20.84-169.7-7.07-51.84-19.94-48.88-23.81-87.45-8.74-87.05,49.1-179.85,119.08-231.13,56.61-41.48,68.03-16.86,158.13-71.46,68.39-41.43,78.28-65.61,137.26-86.35,13.68-4.82,110.93-37.88,142.29,0,15.84,19.15-.83,37.41,11.91,92.3,4.98,21.38,13.97,60.1,41.68,83.37,18.43,15.46,39.97,19.75,64.79,20.27.39-.35.79-.71,1.18-1.07,1.85-1.66,3.71-3.33,5.57-5.01,8.94-8.07,17.88-16.24,26.57-24.27.48-.44.96-.88,1.44-1.32.49-.45.99-.91,1.49-1.36.49-.46,1-.92,1.51-1.37.31-.29.62-.57.93-.84.71-.66,1.43-1.31,2.16-1.97.64-.57,1.28-1.15,1.94-1.74.83-.75,1.68-1.51,2.53-2.29,26.12-23.4,61.6-53.81,92.07-79.93l-.23-5.12c2.47-.24,4.92-.57,7.36-1,23.88-4.19,45.73-17.04,65.43-31.46,21.72-15.86,41.93-34.03,65.48-47.01,24.5-13.5,51.81-20.94,78.81-28.26,21.31-5.78,42.62-11.56,63.93-17.34,17.29-4.7,34.9-9.42,52.72-9.88.92-.03,1.84-.04,2.76-.04,1.81,0,3.62.05,5.43.14,22.48,1.18,43.72,10.04,65.52,15.63,11.32,2.91,23.05,5.02,33.29,10.66,8.35,4.61,15.3,11.34,22.13,17.99,29.22,28.43,59.75,59.14,69.01,98.84,3.36,14.38,3.71,29.28,3.86,44.04.13,12.92.11,25.83-.06,38.74-.33,26.85-1.31,53.69-2.9,80.49-.02.23-.03.46-.05.69-.03.23-.05.46-.08.69-.04.44-.1.88-.18,1.33,0,.03-.01.07-.01.1l-.03.15c-.04.25-.08.5-.13.75-.07.31-.13.63-.2.94-.06.25-.12.49-.18.73-.24.95-.53,1.88-.86,2.79-.1.29-.21.57-.33.86-.11.28-.24.56-.36.83-.06.15-.13.3-.2.45-.14.29-.28.57-.43.84-.44.83-.92,1.59-1.46,2.28-1.35,1.75-2.99,2.99-4.89,3.32-.13.03-.26.05-.39.06-.22.03-.44.04-.67.04-.2,0-.4,0-.61-.03-.35-.03-.71-.1-1.07-.19-.2-.05-.39-.11-.59-.18-2.79-8.57.9-17.71,2.12-26.64,1.6-11.68-1.12-23.47-3.81-34.94-2.76-11.79-5.53-23.57-8.28-35.36-1.45-6.15-2.88-12.28-4.33-18.43-2.92-12.43-5.87-24.97-11.29-36.54-12.53-26.79-37.79-46.38-65.74-56.05-1.08-.37-2.16-.73-3.25-1.08-.54-.17-1.09-.34-1.63-.51-1.09-.33-2.18-.64-3.28-.95-.55-.15-1.1-.3-1.65-.45-.55-.15-1.1-.29-1.65-.43-1.65-.42-3.31-.81-4.98-1.18h-.01c-1.1-.24-2.22-.47-3.33-.69h-.01c-2.23-.43-4.47-.82-6.72-1.16h-.01c-1.12-.17-2.25-.33-3.37-.48h-.01c-.56-.07-1.13-.14-1.7-.21-.56-.07-1.13-.13-1.69-.19-.57-.06-1.13-.12-1.7-.18-.56-.06-1.13-.12-1.7-.17-1.13-.1-2.27-.19-3.41-.27-1.14-.08-2.28-.15-3.42-.21-1.14-.07-2.28-.11-3.43-.15h-.05c-1.11-.04-2.22-.07-3.34-.09h-.04c-1.14-.02-2.28-.03-3.42-.03h-.02c-1.06,0-2.12.01-3.18.03-.7,0-1.4.02-2.1.04-.54.01-1.07.03-1.6.04-.54.02-1.07.04-1.61.06-.71.03-1.42.06-2.13.1-.75.04-1.51.07-2.25.12-.91.06-1.82.12-2.72.19-1.17.08-2.35.17-3.52.27-.7.07-1.41.13-2.12.2-1.41.13-2.82.28-4.23.44-.7.08-1.41.16-2.11.25-.71.08-1.41.18-2.1.27-.37.05-.75.09-1.12.14-1.03.14-2.06.29-3.09.44-14.57,2.15-29.1,5.5-42.38,11.84-13.6,6.49-25.6,15.98-39.21,22.45-25.82,12.25-56.18,13.06-81.19,26.88-19.57,10.82-34.67,28.99-55.26,37.72-9.05,3.84-18.53,5.61-28.25,6.28-2.74,2.27-5.13,4.21-7.16,5.8-.23.18-.47.36-.68.53-.23.18-.44.35-.66.51-.2.17-.41.33-.62.48-.6.46-1.16.88-1.68,1.25-.13.1-.26.19-.39.29-.21.15-.41.29-.6.43-.16.11-.31.21-.46.32-.23.15-.43.28-.62.4-.29.19-.55.35-.79.48-.06.04-.12.07-.18.1-.22.12-.42.22-.59.28-.76.28-1.51.55-2.24.82h-.01c-.27.1-.54.21-.82.3-.43.17-.87.33-1.3.49-.42.16-.86.32-1.28.49-.45.17-.9.33-1.35.51-.36.14-.71.27-1.07.42-2.28.89-4.46,1.78-6.54,2.66-.26.1-.51.22-.78.33-.65.28-1.3.56-1.94.84-.45.2-.9.4-1.33.6-.45.2-.88.4-1.32.59-.54.25-1.08.5-1.6.75-.54.26-1.09.51-1.62.77-.53.26-1.05.51-1.55.76-.52.26-1.02.51-1.51.76-.54.29-1.06.56-1.59.83-.44.24-.88.47-1.31.7-.47.26-.94.51-1.4.77-.52.29-1.02.58-1.52.87-1.5.86-2.95,1.72-4.34,2.62-.03,0-.06.04-.1.06-.47.3-.95.6-1.41.91-.12.09-.25.16-.37.25-.49.32-.97.64-1.45.97-.19.14-.4.28-.6.42-.2.13-.4.28-.6.43-.29.19-.58.4-.86.61-.48.33-.96.69-1.43,1.04-.64.48-1.27.95-1.89,1.44-1.1.86-2.16,1.72-3.21,2.6-.35.29-.7.58-1.04.89-.35.29-.7.59-1.04.89-.34.3-.68.6-1.03.91-1.02.91-2.03,1.85-3.04,2.81-.34.32-.67.64-1.01.97,57.29.18,91.83,2.61,91.83,2.61,63.68-1.83,69.26-2.61,86.34,0,1.79.27,3.76.57,5.86.9,1.06.17,2.15.34,3.27.52,3.94.64,8.3,1.39,12.98,2.3,2,.39,4.07.8,6.18,1.25,2.12.45,4.28.93,6.49,1.44,2.21.51,4.47,1.06,6.76,1.65,1.52.39,3.06.8,4.62,1.22,1.56.43,3.12.87,4.7,1.33.79.23,1.59.47,2.38.71,1.59.48,3.19.98,4.8,1.5s3.22,1.06,4.84,1.62c1.62.57,3.25,1.15,4.88,1.75,1.63.6,3.26,1.23,4.9,1.88,1.63.65,3.26,1.33,4.89,2.02,3.27,1.39,6.52,2.88,9.75,4.48,1.41.7,2.82,1.41,4.22,2.15,2.11,1.11,4.2,2.26,6.26,3.46,4.15,2.4,8.21,4.99,12.14,7.8,3.29,2.34,6.49,4.82,9.58,7.46,1.41,1.2,2.8,2.44,4.16,3.72.69.64,1.36,1.28,2.03,1.94,4.02,3.92,7.8,8.14,11.29,12.7,40.15,52.53,23.34,126.52,5.93,203.14-25.04,110.31-60.49,119.17-53.54,181.62,8.67,77.89,66.3,86.16,68.45,163.75,2.11,76.52-52.08,135.22-56.58,139.94-46.47,48.94-80.96,31.83-113.15,77.4-27.81,39.39-11.62,65.69-32.73,139.94-9.46,33.25-23.29,65.2-36.51,89.12.25,35.89.12,65.06-1.49,89.67-.16,2.39-.33,4.74-.52,7.04-.08.96-.16,1.91-.24,2.85-.13,1.45-.26,2.88-.4,4.3-.17,1.73-.35,3.44-.54,5.12-.15,1.34-.31,2.66-.48,3.97-.12.95-.24,1.88-.36,2.8-.17,1.26-.35,2.51-.53,3.74-.14.95-.29,1.88-.44,2.8-.18,1.18-.38,2.35-.58,3.51-.04.25-.09.49-.13.73-.32,1.84-.67,3.65-1.03,5.43-.05.26-.1.51-.16.75-.24,1.2-.49,2.39-.76,3.57-.88,3.94-1.87,7.75-2.95,11.46-.54,1.85-1.11,3.68-1.71,5.48-.4,1.2-.81,2.4-1.23,3.58-.42,1.18-.86,2.35-1.31,3.51-.67,1.74-1.37,3.46-2.1,5.17-.49,1.13-.99,2.26-1.51,3.38-.77,1.67-1.57,3.33-2.41,4.98-43.3,85.12-139.9,115.69-220.74,141.27-46.87,14.81-58.86,12.59-291.35,29.42-178.54,12.94-213.52,17.3-261.9-8.83-84.76-45.77-117.11-134.61-120.68-144.84-34.06-97.79,18.12-143.83-8.82-231.85-20-65.34-70.24-110.08-111.14-137.37-.76.61-1.52,1.23-2.28,1.86-.13.09-.25.19-.38.31-1.4,1.15-2.82,2.32-4.24,3.5-.78.65-1.57,1.31-2.36,1.97-1.05.87-2.11,1.77-3.18,2.67-1.32,1.12-2.65,2.25-4,3.41-.62.54-1.26,1.09-1.9,1.64-.63.54-1.28,1.1-1.91,1.65-.62.54-1.24,1.08-1.87,1.62-1.32,1.15-2.65,2.31-3.98,3.49-1.31,1.16-2.61,2.31-3.92,3.49-1.65,1.46-3.3,2.94-4.97,4.46-.57.52-1.16,1.05-1.74,1.58-.16.15-.31.3-.47.44-.64.58-1.29,1.17-1.93,1.76-.65.6-1.31,1.2-1.97,1.81-.65.6-1.31,1.22-1.97,1.83-1.21,1.11-2.43,2.25-3.65,3.4-1.06.99-2.12,1.99-3.19,2.99-2.17,2.07-4.37,4.17-6.58,6.3-.64.62-1.28,1.24-1.93,1.87-.46.44-.92.89-1.39,1.35-1.02.98-2.04,1.99-3.06,2.99-.1.1-.18.18-.28.27-.93.92-1.86,1.83-2.8,2.77-3.32,3.29-6.68,6.66-10.07,10.12-1.14,1.15-2.29,2.34-3.44,3.52-2.36,2.43-4.74,4.9-7.14,7.42-.93.98-1.85,1.95-2.78,2.94-.28.29-.55.58-.82.87-.61.64-1.21,1.28-1.81,1.92-.61.65-1.22,1.3-1.82,1.95-.93.98-1.85,1.98-2.78,2.98-4.2,4.53-8.44,9.2-12.71,13.98-.93,1.03-1.86,2.07-2.78,3.13-.62.68-1.23,1.37-1.83,2.06-1.02,1.15-2.05,2.32-3.07,3.49l-1.55,1.77c-.3.35-.61.7-.91,1.06-1.16,1.33-2.32,2.66-3.48,4.01-.08.1-.17.2-.25.29-2.28,2.66-4.6,5.29-6.96,7.93-.95,1.05-1.9,2.11-2.86,3.16-.95,1.06-1.92,2.11-2.89,3.17-.19.22-.4.45-.62.67-1.79,1.95-3.61,3.9-5.47,5.84-.42.45-.85.9-1.27,1.35-1,1.05-2.01,2.09-3.02,3.13-.99,1.04-2,2.09-3.04,3.13-.31.33-.63.65-.94.96-.08.09-.16.16-.25.25-1.78,1.82-3.58,3.64-5.41,5.44-.36.36-.72.71-1.08,1.08-.29.28-.57.56-.86.84-.66.65-1.31,1.29-1.97,1.93-1.64,1.62-3.3,3.23-4.97,4.83-.92.88-1.84,1.76-2.77,2.64-2.35,2.25-4.74,4.49-7.15,6.73-1.12,1.05-2.27,2.1-3.41,3.15-.5.47-1.01.93-1.51,1.39-2.2,2-4.4,4-6.64,6-1.18,1.06-2.36,2.11-3.56,3.17-1.19,1.05-2.39,2.12-3.59,3.17-.34.29-.67.59-1.01.88-1.22,1.07-2.44,2.13-3.67,3.2-1.22,1.06-2.46,2.12-3.69,3.18-1.24,1.06-2.48,2.12-3.71,3.18-1.25,1.05-2.5,2.11-3.75,3.16-1.54,1.31-3.09,2.6-4.64,3.9-1.29,1.07-2.58,2.14-3.88,3.21-2.59,2.14-5.2,4.27-7.81,6.39-.45.35-.9.72-1.34,1.08-.1.08-.19.15-.3.24-.82.67-1.66,1.34-2.48,2.01-.96,1.29-1.97,2.55-3.05,3.76-4.77,5.38-10.61,9.72-15.43,15.05-5.65,6.25-9.78,13.71-13.8,21.11-29.9,55-56.93,111.56-80.95,169.37-15.53,37.41-29.98,76.23-35.28,116.12-1.62,12.22-2.39,24.55-2.07,36.97.36,14.31,2.19,28.58,5.45,42.52,1.94,8.35,4.4,17.14,1.83,25.32-.8,2.54-2.33,4.91-4.28,6.83-.07.08-.15.15-.23.23-.59.57-1.22,1.09-1.89,1.56-.26.2-.53.38-.81.56-.52.33-1.06.63-1.6.9-.37.18-.73.34-1.11.49-.33.13-.66.24-.99.34-1.18.37-2.39.57-3.58.57-1.87,0-3.72-.49-5.4-1.59-15.95-10.19-13.97-33.37-14.8-52.27-.93-21.14-7.77-41.55-11.12-62.43-.56-3.5-1.03-7-1.35-10.53-4.68-51.02,20.22-99.71,28.22-150.31Z"/>
  </g>
  <g id="dirt">
    <g>
      <path d="M1325.18,446.41c-1.04.93-2.08,1.86-3.11,2.79-2.08,1.85-4.14,3.7-6.2,5.53-1.03.91-2.05,1.82-3.08,2.73-2.73,2.42-5.44,4.81-8.12,7.16-4.02,3.53-7.99,6.98-11.86,10.32-9.74,8.43-16.61,14.37-26.53,23-13.24,11.51-28.64,23.07-43.96,34.5-2.18,1.64-4.36,3.27-6.53,4.9h-.02c-4.34-1.82-9.28-3.75-14.48-5.77-20.23-7.84-27.43-7.52-33.86-15.47-6.31-7.8-2.96-12.59-8.34-27.45-1.89-5.3-7.93-22.03-22.55-33.36-1.03-.81-26.39-19.83-53.94-9.8-.38.14-.75.28-1.12.42-.29.11-.59.23-.88.35-.07.03-.15.07-.22.1-.21.09-.42.17-.62.26-.39.18-.78.35-1.15.53-.12.05-.24.11-.36.16-.69.33-1.37.67-2.04,1.03-.09.05-.17.1-.25.15-.15.08-.3.16-.45.24-.53.3-1.04.6-1.55.91-.38.23-.76.48-1.13.71-.86.56-1.7,1.14-2.5,1.74-.37.27-.74.55-1.11.84-1.14.89-2.23,1.82-3.26,2.78-.15.13-.29.27-.44.41-.68.64-1.34,1.29-1.98,1.96-.28.29-.56.58-.83.88-.3.32-.59.64-.87.96-.14.16-.28.32-.43.49-.24.27-.47.55-.7.82-.14.17-.28.34-.42.51-1.15,1.39-2.2,2.78-3.17,4.15-1.46,2.06-3.1,4-4.9,5.76-.38.37-.77.74-1.16,1.09-.36.33-.73.66-1.11.96-.15.13-.3.26-.46.38-.31.26-.63.51-.95.75-.24.19-.49.37-.74.54-.35.27-.71.52-1.07.76-.13.1-.27.18-.4.27-9.08,6.08-11.83,7.23-18.3,12.57-6.72,5.54-6.92,7.07-11.58,9.82-7.45,4.4-12.45,4.35-20.62,6.83-8.57,2.59-18.95,5.75-25.67,13.92-9.11,11.07-8.41,27.63-8.19,32.76.39,8.87,2.62,13.3,0,21.02-.01.02-.01.03-.02.05-.96,2.82-2.76,5.27-5.08,7.12-1.68,1.34-3.35,2.63-4.99,3.87-.25.18-.51.37-.76.56-.03.02-.06.05-.08.07-.48.35-.96.7-1.44,1.05-.47.34-.95.68-1.42,1.01-.94.67-1.87,1.31-2.79,1.93-11.91,7.58-25.5,10.43-37.43,18.68-6.88,4.36-14.71,9.79-17.38,17.33-3.16,9.47.93,18.71,3.8,29.01,2.72,8.9,5.99,15.69,8.73,24.16,3.69,9.92,3.54,22.42,7.5,30.82.17.34.34.67.52,1,.19.35.36.7.53,1.06.17.35.34.71.49,1.07.05.11.09.23.14.34.08.19.16.38.24.57.06.12.11.25.16.39.05.14.11.28.15.42.03.05.05.11.06.16.04.13.08.26.13.39.09.27.18.53.27.79.06.18.12.36.16.55.06.19.1.37.15.56.05.18.1.36.15.54.04.17.09.35.13.53.07.29.12.58.18.87.07.35.15.7.2,1.05.05.29.08.59.12.89.05.35.1.69.14,1.04.03.3.04.6.06.9.02.35.06.69.07,1.04.01.3,0,.61,0,.91.01.35.02.69.01,1.03-.01.31-.04.61-.05.92-.02.32-.03.63-.06.95.01.04,0,.08,0,.12-.03.29-.07.59-.11.88-.04.33-.07.67-.12,1-.05.31-.11.62-.17.92-.06.32-.1.63-.17.94,0,.04-.01.08-.03.13-.06.29-.14.56-.21.84-.08.33-.16.66-.25.99-.08.3-.19.6-.28.9-.1.32-.2.65-.31.97-.11.3-.23.59-.34.89-.12.32-.24.64-.37.95-.13.29-.27.58-.4.87-.14.31-.28.63-.43.93-.15.29-.3.57-.45.85-.18.33-.35.66-.54.99h-.03c-5.22.06-10.52,1.19-15.96,3.73-11.02,5.06-21.33,18.88-17.78,30.67,1.33,4.22,4.02,7.93,5.67,12,2.61,6.28,1.95,12.27,2.09,19.15-.66,9.97,2.58,19.65.06,29.25-2.06,6.86-8.95,15.04-11.64,23.38-3.11,8.75-3.35,17.56-9.87,24.57-6.99,8.18-17.06,11.18-24.73,16.12-12.41,7.62-17.47,22.17-27.41,32.58-9.32,11.26-20.05,19.73-30.68,29.27-7.86,7.5-16.57,19.89-22.18,30.03-11.76,21.45-31.64,35.97-51.83,49.93-27.64,19.83-59.27,44.38-68.18,51.55-4.78,3.8-9.84,8-14.72,12.25-16.78,14.59-19.52,20.35-33.1,33.36-3.85,3.49-21.8,13.35-48.54,32.2-1.41.99-2.84,2.01-4.29,3.05-.73.51-1.47,1.04-2.21,1.58-1.11.8-2.23,1.61-3.36,2.45-1.14.82-2.28,1.67-3.44,2.53-.78.57-1.56,1.15-2.34,1.74-1.18.88-2.36,1.77-3.56,2.68-1.2.91-2.42,1.83-3.64,2.77-4.99,3.83-10.17,7.92-15.53,12.26-.77.62-1.54,1.25-2.31,1.88h-.01c-1.42,1.16-2.85,2.35-4.29,3.55-1.4,1.15-2.8,2.33-4.21,3.52-.36.3-.71.6-1.07.9-1.7,1.44-3.41,2.91-5.14,4.4-.41.35-.81.7-1.22,1.05-1.55,1.34-3.11,2.7-4.68,4.09-.71.61-1.41,1.24-2.11,1.86-.35.31-.71.62-1.05.93-.36.31-.71.62-1.06.94h0c-1.13-35.31,10.13-67.36,13.24-75.68,18.21-48.89,42.62-51.16,92.28-119.08,19.06-26.06,50.02-69.06,71.47-131.02,10.54-30.48,31.34-92.73,20.84-169.7-7.07-51.84-19.94-48.88-23.81-87.45-8.74-87.05,49.1-179.85,119.08-231.13,56.61-41.48,68.03-16.86,158.13-71.46,68.39-41.43,78.28-65.61,137.26-86.35,13.68-4.82,110.93-37.88,142.29,0,15.84,19.15-.83,37.41,11.91,92.3,4.98,21.38,13.97,60.1,41.68,83.37,18.43,15.46,39.97,19.75,64.79,20.27Z" style="fill: #640000;"/>
      <path d="M1823.13,1057.35c2.11,76.52-52.08,135.22-56.58,139.94-46.47,48.94-80.96,31.83-113.15,77.4-27.81,39.39-11.62,65.69-32.73,139.94-9.46,33.25-23.29,65.2-36.51,89.12-.01-.66-.01-1.33-.02-2-.01-1.2-.02-2.4-.03-3.61-.06-8.48-.15-17.33-.24-26.57-1.15-118.75-16.93-122.65-5.89-176.56,21.63-105.43,85.16-106.01,104.24-197.17,11.11-53.1-16.54-122.7-71.87-261.92-54.34-136.78-85.54-168.77-114.77-189.09-36.41-25.32-64.31-11.49-123.6-42.65-15.85-8.31-32.66-18.75-48.01-29.9,1.22-1.21,2.46-2.42,3.7-3.61.42-.4.83-.8,1.24-1.19,1.66-1.58,3.31-3.11,4.9-4.55,21.4-19.44,33.12-23.4,54.63-36.82,21.2-13.4,40.51-28.2,58.97-44.94,18.55-17.9,29.13-30.56,39.73-40.74,57.29.18,91.83,2.61,91.83,2.61,63.68-1.83,69.26-2.61,86.34,0,1.79.27,3.76.57,5.86.9,1.06.17,2.15.34,3.27.52,3.94.64,8.3,1.39,12.98,2.3,2,.39,4.07.8,6.18,1.25,2.12.45,4.28.93,6.49,1.44,2.21.52,4.47,1.06,6.76,1.65,1.52.39,3.06.8,4.62,1.22,1.56.43,3.12.87,4.7,1.33.79.23,1.59.47,2.38.71,1.59.48,3.19.98,4.8,1.5s3.22,1.06,4.84,1.62c1.62.57,3.25,1.15,4.88,1.75,1.63.61,3.26,1.23,4.9,1.88,1.63.65,3.26,1.33,4.89,2.02,3.27,1.4,6.52,2.89,9.75,4.48,1.41.7,2.82,1.41,4.22,2.15,2.11,1.11,4.2,2.26,6.26,3.46,4.15,2.4,8.21,5,12.14,7.8,3.29,2.34,6.49,4.82,9.58,7.46,1.41,1.21,2.8,2.45,4.16,3.72.69.64,1.36,1.28,2.03,1.94,4.02,3.92,7.8,8.14,11.29,12.7,40.15,52.53,23.34,126.52,5.93,203.14-25.04,110.31-60.49,119.17-53.54,181.62,8.67,77.89,66.3,86.16,68.45,163.75Z" style="fill: #640000;"/>
    </g>
  </g>
  <g id="rough">
    <path d="M1066.15,661.69c1.35-.85,2.6-1.86,3.72-3.06-1.43.9-2.66,1.94-3.72,3.06ZM1682.22,1097.84c11.11-53.1-16.54-122.7-71.87-261.92-54.34-136.78-85.54-168.77-114.77-189.09-36.41-25.32-64.31-11.49-123.6-42.65-15.85-8.31-32.66-18.75-48.01-29.9-.92.92-1.83,1.84-2.71,2.75-.3.31-.59.61-.88.91-.48.5-.96,1-1.42,1.49-.33.35-.65.69-.96,1.03-.32.34-.63.68-.93,1.01-13.85,15.45-25.59,34.45-41.21,51.24-24.39,27.78-54.81,52.98-90.33,83.04-15.83,13.33-28.84,23.92-44.45,36.15-19.68,15.36-30.09,22.33-44.03,36.6-21.33,20.66-33.73,42.2-50.4,63.89-30.72,36.8-60.9,71.37-102.23,98.87-8.02,5.33-18.79,11.6-27.2,15.49-19.24,8.47-37.72,15.01-55.05,30.26-28.26,22.59-53.98,58.45-67.54,85.13-12.43,22.43-18.29,48.18-30.73,61.69-4.67,5.35-10.85,10.54-16.92,14.52-11.6,7.6-20.33,8.84-31.27,15.88-5.13,3.25-10.53,7.91-14.88,12.34-13.05,13.3-14.64,22.05-24.29,35.81-4.38,6.27-9.97,12.86-15.41,18.32-12.84,12.61-25.32,17.98-38.24,30.98-3.43,3.06-31.73,19.06-74.24,53.71,40.9,27.29,91.14,72.03,111.14,137.37,26.94,88.02-25.24,134.06,8.82,231.85,3.57,10.23,35.92,99.07,120.68,144.84,48.38,26.13,83.36,21.77,261.9,8.83,232.49-16.83,244.48-14.61,291.35-29.42,80.84-25.58,177.44-56.15,220.74-141.27.84-1.65,1.64-3.31,2.41-4.98.52-1.12,1.02-2.25,1.51-3.38.73-1.71,1.43-3.43,2.1-5.17.45-1.16.89-2.33,1.31-3.51.42-1.18.83-2.38,1.23-3.58.6-1.8,1.17-3.63,1.71-5.48,1.08-3.71,2.07-7.52,2.95-11.46.27-1.18.52-2.37.76-3.57.06-.24.11-.49.16-.75.36-1.78.71-3.59,1.03-5.43.04-.24.09-.48.13-.73.2-1.16.4-2.33.58-3.51.15-.92.3-1.85.44-2.8.18-1.23.36-2.48.53-3.74.12-.92.24-1.85.36-2.8.17-1.31.33-2.63.48-3.97.19-1.68.37-3.39.54-5.12.14-1.42.27-2.85.4-4.3.08-.94.16-1.89.24-2.85.19-2.3.36-4.65.52-7.04,1.61-24.61,1.74-53.78,1.49-89.67-.01-.66-.01-1.33-.02-2-.01-1.2-.02-2.4-.03-3.61-.06-8.48-.15-17.33-.24-26.57-1.15-118.75-16.93-122.65-5.89-176.56,21.63-105.43,85.16-106.01,104.24-197.17ZM1389.59,840.86c-1.55,4.74-3.89,10.34-6.27,15.29-11.42,23.53-25.03,27.15-35.93,49.65-2.34,4.84-4.79,10.95-6.2,15.83-7.74,21.56,1.22,60.68,3.01,93.47,1.64,24.78,2.52,53.42,2.65,77.6-.29,18.57-.98,29.39-5.33,40.79-16.9,41.39-69.46,70.88-107.52,99.39-14.5,10.67-35.86,21.17-45.86,31.22-26.06,26.42-52.52,72.39-51.52,125.78.76,15.62,7.41,34.06,16.41,62.03,8.18,24.64,16.59,49.52,24.88,74.29,12.77,37.37,15.45,48.07,24.23,68.33,22.64,47.7,5.78,60.31-38.12,73.94-22.39,8.67-81.79,18.04-92.22,17.96-10.52.47-21.98,1.43-32.17,2.58-45.99,3.46-83.18,24.82-111.8,12.3-11.89-3.87-25.75-10.61-36.21-20.21-23.94-21.56-21.11-44.52-16.73-75.67,4.21-31.81,8.01-65.08,10.07-96.99,1.22-19.28.66-38.61-1.15-59.1-2.24-35.72-10-72.92-31.51-104.27-19.06-28.38-43.48-47.4-41.32-84.25.31-11.69.9-24.79,10.47-32.82,17.02-14.71,41.33-17.09,62.14-21.43l.38-.09c43.39-10.63,38.16-38.37,30.15-82.45-3.39-22.62-5.87-40.14-7.42-60.82-.53-12.9-1.53-18.99,2.21-30.1,5.46-15.98,16.05-28.41,29.76-44.49,26.08-31.29,72.86-67.24,100.55-91.47,22.96-19.05,36.53-35.07,58.5-59.06,15.64-16.91,31.99-33.68,47.77-49.54,22.82-22.66,46.54-45.64,66.01-61.17,31.79-25.86,51.3-43.52,78.27-44.7,39.37-1.53,77.63,23.74,95.59,58.14,21.45,40.89,9.06,85.34,4.23,100.04Z" style="fill: #006400;"/>
    <path d="M1201.29,531.57c-20.23-7.84-27.43-7.52-33.86-15.47-6.32-7.8-2.97-12.58-8.34-27.45-1.89-5.3-7.93-22.03-22.55-33.36-1.03-.81-26.39-19.83-53.95-9.81-12.11,4.39-20.02,12.72-25.48,20.41-2.83,4-6.32,7.51-10.39,10.24-.13.09-.27.18-.4.27-9.07,6.08-11.82,7.23-18.3,12.56-6.72,5.54-6.92,7.08-11.58,9.82-7.45,4.4-12.45,4.34-20.62,6.82-8.57,2.6-18.95,5.75-25.66,13.93-9.11,11.07-8.41,27.63-8.19,32.76.38,8.88,2.62,13.31,0,21.02,0,.02,0,.04-.02.06-.96,2.82-2.76,5.26-5.08,7.11-3.93,3.14-7.81,6.02-11.49,8.49-11.91,7.58-25.49,10.43-37.43,18.68-6.88,4.36-14.7,9.79-17.38,17.33-3.16,9.47.93,18.71,3.8,29,2.72,8.9,5.99,15.69,8.73,24.16,3.69,9.92,3.55,22.42,7.51,30.82.17.34.34.67.52.99,2.38,4.47,3.56,9.36,3.56,14.27,0,5.49-1.46,10.98-4.32,15.87,11.71-.13,22.86,5.17,33.42,12.16,14.84,8.18,48.74,25.61,55.37.37,3.85-12.75,15.96-16.41,23.69-25.72,16.68-18.95,36.98-36.91,54.07-55.46,4.63-5.83,9.28-14.03,14.72-18.68,4.36-3.91,9.81-6.23,15.04-8.79,19.54-10.18,34.48-30.1,44.92-48.94,11.5-17.87,37.13-37.5,64.16-57.71-4.34-1.82-9.28-3.75-14.48-5.77ZM1013.23,512.31c.54-2.08,1.77-3.33,3.79-5.32,3.39-3.35,6.59-5.01,11.47-7.48,4.95-2.51,6.57-2.75,7.88-2.76.97-.02,3.67-.06,6.14,1.53,3.43,2.21,4.25,6.18,5.53,12.28.52,2.47,1.15,5.61.93,9.83-.23,4.04-.41,7.55-2.77,10.95-2.09,3.02-4.81,4.39-7.88,5.94-3.09,1.55-5.49,2.76-8.7,2.36-.95-.12-4.34-.55-6.46-3.08-1.1-1.31-3.65-4.91-5.24-7.82-2.54-4.63-3.52-6.81-4.21-9.48-.63-2.43-1.03-4.83-.48-6.96ZM968.5,552.03c.59-4.81,3.06-9.12,4.09-10.86.74-1.23,5.71-9.94,15.26-16.37,3.48-2.36,6.25-3.51,9.32-3.89,1.03-.13,2.65-.34,4.5,0,3.83.69,7.62,6.65,8.13,7.76,1,2.21,2.74,6.07,4.19,9.31,1.34,3.02,2.8,8.39,2.42,9.75-.58,2.16-2.91,4.41-3.99,5.06-9.93,5.88-22.14,12.11-26.43,13.95-4.64,2-6.54,2.73-8.35,2.28-3.2-.78-6.01-3.53-6.77-4.84-1.21-2.38-3.01-6.87-2.36-12.14ZM1146.01,575.05l-.02.18c-.37,5.4-5.22,23.88-23.84,39.03-3.77,3.07-16.63,12.69-19.28,14.99-2.91,2.57-6.16,4.59-8.88,6.92-4.51,3.88-8.22,8.64-11.8,13.35-3.92,5.2-7.35,9.88-12.71,13.9-2.56,2.08-10.88,12.22-14.21,15.13-15.15,13.31-13.1,7.23-22.6,16.93-3.19,3.25-6.98,13.14-13,18.08-6.32,5.18-7.27,7.88-12.74,12.27-9.15,7.34-19.31,13.74-30.79,15.43-15.94,2.19-39.19,1.11-51.24-12.44-4.19-4.51-4.55-10.73-6.32-16.48-.91-2.91-2.25-5.68-3.55-8.42-4.07-7.63-4.33-16.37-5.27-24.77-.91-7.06-2.29-14.08-3.39-21.52-1.51-11.75-4.51-26.03,2.38-36.52,4.76-6.2,11.03-12.29,17.13-16.75,6.52-4.98,14.64-6.56,22.2-9.3,8.09-2.98,13.89-10.01,20.36-15.45,6.99-5.97,9.72-7.15,20.54-10.47,1.99-.63,10.73-4.94,12.6-5.7,8.68-3.62,12.09-7.88,19.2-13.78,5.26-4.62,11.79-5.03,18.03-8.14,4.96-2.49,9.63-7.74,14.32-10.49,13.77-6.41,30.14-3.44,44.81.31,19.41,5.89,49.7,19.74,48.06,43.72Z" style="fill: #006400;"/>
  </g>
  <g id="fairway">
    <path d="M1385.36,740.82c-17.96-34.4-56.22-59.67-95.59-58.14-26.97,1.18-46.48,18.84-78.27,44.7-19.47,15.53-43.19,38.51-66.01,61.17-15.78,15.86-32.13,32.63-47.77,49.54-21.97,23.99-35.54,40.01-58.5,59.06-27.69,24.23-74.47,60.18-100.55,91.47-13.71,16.08-24.3,28.51-29.76,44.49-3.74,11.11-2.74,17.2-2.21,30.1,1.55,20.68,4.03,38.2,7.42,60.82,8.01,44.08,13.24,71.82-30.15,82.45l-.38.09c-20.81,4.34-45.12,6.72-62.14,21.43-9.57,8.03-10.16,21.13-10.47,32.82-2.16,36.85,22.26,55.87,41.32,84.25,21.51,31.35,29.27,68.55,31.51,104.27,1.81,20.49,2.37,39.82,1.15,59.1-2.06,31.91-5.86,65.18-10.07,96.99-4.38,31.15-7.21,54.11,16.73,75.67,10.46,9.6,24.32,16.34,36.21,20.21,28.62,12.52,65.81-8.84,111.8-12.3,10.19-1.15,21.65-2.11,32.17-2.58,10.43.08,69.83-9.29,92.22-17.96,43.9-13.63,60.76-26.24,38.12-73.94-8.78-20.26-11.46-30.96-24.23-68.33-8.29-24.77-16.7-49.65-24.88-74.29-9-27.97-15.65-46.41-16.41-62.03-1-53.39,25.46-99.36,51.52-125.78,10-10.05,31.36-20.55,45.86-31.22,38.06-28.51,90.62-58,107.52-99.39,4.35-11.4,5.04-22.22,5.33-40.79-.13-24.18-1.01-52.82-2.65-77.6-1.79-32.79-10.75-71.91-3.01-93.47,1.41-4.88,3.86-10.99,6.2-15.83,10.9-22.5,24.51-26.12,35.93-49.65,2.38-4.95,4.72-10.55,6.27-15.29,4.83-14.7,17.22-59.15-4.23-100.04ZM1003.61,1557.86c-.04,2.13-1.69,3.84-3.71,3.8l-40.47-.75c-2-.04-3.61-1.8-3.57-3.94l1.71-104.66c.03-2.14,1.68-3.85,3.7-3.81l40.47.75c2.02.04,3.62,1.8,3.57,3.94l-1.7,104.67ZM1064.46,1561.08l-34.03.73c-1.68.04-3.1-1.59-3.16-3.66l-2.86-100.64c-.06-2.06,1.26-3.76,2.95-3.8l34.04-.72c1.7-.04,3.11,1.59,3.16,3.66l2.86,100.65c.06,2.05-1.26,3.75-2.96,3.78Z" style="fill: #00c800;"/>
    <path d="M1097.95,531.33c-14.67-3.75-31.04-6.72-44.81-.31-4.69,2.75-9.36,8-14.32,10.49-6.24,3.12-12.76,3.53-18.03,8.14-7.11,5.9-10.52,10.16-19.2,13.78-1.88.76-10.61,5.07-12.6,5.7-10.82,3.32-13.55,4.5-20.54,10.47-6.47,5.43-12.27,12.46-20.36,15.45-7.56,2.74-15.68,4.32-22.2,9.3-6.11,4.46-12.38,10.55-17.13,16.75-6.9,10.49-3.89,24.77-2.38,36.52,1.1,7.43,2.48,14.46,3.39,21.52.95,8.4,1.2,17.14,5.27,24.77,1.29,2.74,2.64,5.51,3.55,8.42,1.77,5.74,2.13,11.96,6.32,16.48,12.05,13.55,35.3,14.63,51.24,12.44,11.48-1.69,21.64-8.09,30.79-15.43,5.47-4.39,6.43-7.09,12.74-12.27,6.01-4.95,9.81-14.84,13-18.08,9.5-9.69,7.44-3.62,22.6-16.93,3.32-2.91,11.64-13.04,14.21-15.13,5.36-4.02,8.78-8.7,12.71-13.9,3.58-4.71,7.29-9.48,11.8-13.35,2.72-2.33,5.97-4.34,8.88-6.92,2.66-2.31,15.51-11.93,19.28-14.99,18.63-15.15,23.48-33.62,23.84-39.03l.02-.18c1.64-23.97-28.65-37.82-48.06-43.72ZM1053.87,671.24c-3.21,4.92-7.14,10.65-12.3,12.86-1.72.7-3.51,1.06-5.19,1.91-2.26,1.05-4.73,3.17-6.43,5.04-3.75,4.55-7.38,11.17-12.18,15.08-6.07,5.41-16.21,9.63-23.16,2.91l-.15-.12c-4.49-3.88-6.89-8.99-6.38-14.56,1.07-5.67,2.28-9.61,5.71-15.11,2.28-3.44,5.35-5.94,8.53-8.42,2.59-2.21,5.34-.75,8.19-.2,3.29.09,6.36-3.63,6.11-6.85-.7-5.93,3.72-10.91,8.85-13.01,4.84-1.42,10.97-3.36,15.77-2.12,4.08.91,7.15,3.65,9.75,6.75,4.13,4.11,5.65,10.58,2.87,15.83ZM1082.25,620.6c-24.84,21.57-61.42,18.06-83.04,45.03-13.34,16.64-26.59,54.19-54.72,41.45-14.39-6.52-19.58-24.11-21.23-38.51-1.38-12.05,3.45-25.13,10.15-35.39,12.95-23.31,39.98-31.73,62.12-44.17,11.69-6.58,22.76-14.41,33.92-21.54,18.39-11.74,39.98-27.85,60.32-9.99,21.26,18.68,11.01,47.04-7.52,63.12Z" style="fill: #00c800;"/>
  </g>
  <g id="teebox">
    <path d="M1005.31,1453.19l-1.7,104.67c-.04,2.13-1.69,3.84-3.71,3.8l-40.47-.75c-2-.04-3.61-1.8-3.57-3.94l1.71-104.66c.03-2.14,1.68-3.85,3.7-3.81l40.47.75c2.02.04,3.62,1.8,3.57,3.94Z" style="fill: lime;"/>
    <path d="M1067.42,1557.3c.06,2.05-1.26,3.75-2.96,3.78l-34.03.73c-1.68.04-3.1-1.59-3.16-3.66l-2.86-100.64c-.06-2.06,1.26-3.76,2.95-3.8l34.04-.72c1.7-.04,3.11,1.59,3.16,3.66l2.86,100.65Z" style="fill: lime;"/>
  </g>
  <g id="green">
    <path d="M1097.89,582.86c-.04,11.86-6.97,25.24-18.11,34.91-10.61,9.22-23.41,13.6-36.96,18.22-16.69,5.71-33.96,11.6-46.54,27.29-3.09,3.86-6.09,8.64-9.26,13.71-8.49,13.56-18.11,28.93-31.49,28.93-2.99,0-6.18-.76-9.49-2.26-13.05-5.91-17.57-22.58-19.05-35.51-1.14-9.87,2.36-21.86,9.56-32.93l.07-.1.07-.12c9.43-16.97,27.44-25.9,44.84-34.52,5.26-2.62,10.72-5.31,15.84-8.2,8.13-4.56,15.99-9.76,23.6-14.78,3.44-2.28,7.01-4.63,10.5-6.86,1.2-.76,2.41-1.55,3.63-2.34,10.89-7.05,23.25-15.03,34.84-15.03,6.29,0,11.96,2.3,17.35,7.04,7.06,6.19,10.62,13.78,10.6,22.56Z" style="fill: #ffff96;"/>
  </g>
  <g id="green_edge">
    <path d="M1089.77,557.48c-20.33-17.86-41.93-1.75-60.32,9.99-11.16,7.12-22.23,14.96-33.92,21.54-22.14,12.44-49.17,20.86-62.12,44.17-6.7,10.27-11.53,23.35-10.15,35.39,1.65,14.4,6.85,31.99,21.23,38.51,28.12,12.74,41.37-24.81,54.72-41.45,21.62-26.97,58.21-23.46,83.04-45.03,18.52-16.08,28.78-44.44,7.52-63.12ZM1079.78,617.77c-10.61,9.22-23.41,13.6-36.96,18.22-16.69,5.71-33.96,11.6-46.54,27.29-3.09,3.86-6.09,8.64-9.26,13.71-8.49,13.56-18.11,28.93-31.49,28.93-2.99,0-6.18-.76-9.49-2.26-13.05-5.91-17.57-22.58-19.05-35.51-1.14-9.87,2.36-21.86,9.56-32.93l.07-.1.07-.12c9.43-16.97,27.44-25.9,44.84-34.52,5.26-2.62,10.72-5.31,15.84-8.2,8.13-4.56,15.99-9.76,23.6-14.78,3.44-2.28,7.01-4.63,10.5-6.86,1.2-.76,2.41-1.55,3.63-2.34,10.89-7.05,23.25-15.03,34.84-15.03,6.29,0,11.96,2.3,17.35,7.04,7.06,6.19,10.62,13.78,10.6,22.56-.04,11.86-6.97,25.24-18.11,34.91Z" style="fill: #dcff00;"/>
  </g>
  <g id="bunker">
    <path d="M1053.87,671.24c-3.21,4.92-7.14,10.65-12.3,12.86-1.72.7-3.51,1.06-5.19,1.91-2.26,1.05-4.73,3.17-6.43,5.04-3.75,4.55-7.38,11.17-12.18,15.08-6.07,5.41-16.21,9.63-23.16,2.91l-.15-.12c-4.49-3.88-6.89-8.99-6.38-14.56,1.07-5.67,2.28-9.61,5.71-15.11,2.28-3.44,5.35-5.94,8.53-8.42,2.59-2.21,5.34-.75,8.19-.2,3.29.09,6.36-3.63,6.11-6.85-.7-5.93,3.72-10.91,8.85-13.01,4.84-1.42,10.97-3.36,15.77-2.12,4.08.91,7.15,3.65,9.75,6.75,4.13,4.11,5.65,10.58,2.87,15.83Z" style="fill: #fff;"/>
    <path d="M1016.4,547.72c-.58,2.16-2.91,4.41-3.99,5.06-9.93,5.88-22.14,12.11-26.43,13.95-4.64,2-6.54,2.73-8.35,2.28-3.2-.78-6.01-3.53-6.77-4.84-1.21-2.38-3.01-6.87-2.36-12.14.59-4.81,3.06-9.12,4.09-10.86.74-1.23,5.71-9.94,15.26-16.37,3.48-2.36,6.25-3.51,9.32-3.89,1.03-.13,2.65-.34,4.5,0,3.83.69,7.62,6.65,8.13,7.76,1,2.21,2.74,6.07,4.19,9.31,1.34,3.02,2.8,8.39,2.42,9.75Z" style="fill: #fff;"/>
    <path d="M1048.96,520.39c-.23,4.04-.41,7.55-2.77,10.95-2.09,3.02-4.81,4.39-7.88,5.94-3.09,1.55-5.49,2.76-8.7,2.36-.95-.12-4.34-.55-6.46-3.08-1.1-1.31-3.65-4.91-5.24-7.82-2.54-4.63-3.52-6.81-4.21-9.48-.63-2.43-1.03-4.83-.48-6.96.54-2.08,1.77-3.33,3.79-5.32,3.39-3.35,6.59-5.01,11.47-7.48,4.95-2.51,6.57-2.75,7.88-2.76.97-.02,3.67-.06,6.14,1.53,3.43,2.21,4.25,6.18,5.53,12.28.52,2.47,1.15,5.61.93,9.83Z" style="fill: #fff;"/>
  </g>
  <g id="water">
    <g>
      <path d="M1469.7,319.12c-1.35,1.15-2.71,2.32-4.08,3.5-1.01.86-2.03,1.73-3.05,2.62l-.23-5.12c2.47-.24,4.92-.57,7.36-1Z" style="fill: #00c8ff;"/>
      <path d="M1467.58,317c-2.38,2.03-4.77,4.06-7.13,6.12l5.12,2.12-.23-5.12-3,3c2.73-.27,5.45-.64,8.16-1.11,1.6-.28,2.49-2.24,2.1-3.69-.46-1.69-2.09-2.37-3.69-2.1-2.18.38-4.36.67-6.56.89-1.56.16-3.08,1.25-3,3l.23,5.12c.12,2.69,3.15,3.84,5.12,2.12,2.36-2.06,4.75-4.09,7.13-6.12,1.23-1.05,1.08-3.16,0-4.24-1.22-1.22-3.01-1.05-4.24,0Z"/>
    </g>
    <path d="M1995.2,411.13c-.34,26.56-1.31,53.6-2.9,80.36-.41,6.71-3.76,14.21-7.64,14.21h-.02c-1.13-5.06.03-10.5,1.24-16.22.53-2.49,1.07-5.06,1.42-7.62,1.69-12.35-1.26-24.89-3.86-35.97-1.38-5.89-2.76-11.79-4.14-17.68-1.39-5.89-2.77-11.79-4.15-17.69-.72-3.07-1.45-6.14-2.16-9.21-.72-3.07-1.45-6.14-2.17-9.21-2.91-12.39-5.91-25.19-11.48-37.08-12.14-25.95-36.7-46.91-67.37-57.52-16.5-5.7-34.91-8.59-54.73-8.59-10.93,0-22.46.88-34.3,2.62-17.64,2.6-31.36,6.45-43.18,12.09-6.92,3.3-13.47,7.38-19.8,11.34-6.25,3.9-12.71,7.93-19.41,11.11-11.8,5.6-24.92,8.85-37.62,11.98-14.79,3.66-30.07,7.43-43.73,14.98-8.84,4.89-16.82,11.27-24.54,17.43-9.93,7.94-19.3,15.44-30.46,20.17-7.92,3.36-16.86,5.34-27.34,6.06l-.9.06-.69.58c-2.84,2.36-5.17,4.24-7.12,5.77-.14.11-.28.22-.42.32l-.25.21c-.21.16-.39.31-.58.45l-.06.04-.06.05c-.16.13-.33.26-.49.38l-.03.03-.03.02c-.58.44-1.13.85-1.6,1.2l-.41.29-.23.17c-.12.08-.24.18-.37.26-.14.09-.27.19-.37.25-.15.1-.29.19-.42.27l-.17.11c-.23.15-.44.28-.64.38l-.09.06-.04.03h0c-.13.08-.22.11-.24.12-.59.22-1.18.42-1.75.64h-.02l-.48.18c-.25.09-.5.19-.74.27l-.06.02-.05.03c-.33.12-.66.24-.98.37l-.3.1-.27.1c-.34.13-.68.26-1.03.39-.45.18-.91.35-1.36.53-.17.07-.34.13-.51.2-.19.07-.38.14-.55.22-2.18.84-4.34,1.73-6.58,2.67-.23.08-.44.18-.66.27l-.17.08c-.67.29-1.32.57-1.96.85-.47.21-.93.41-1.38.62-.45.2-.88.39-1.29.58s-.82.38-1.22.56l-.45.22-.65.31c-.34.16-.67.31-.98.47-.54.25-1.07.52-1.57.77-.53.25-1.04.52-1.59.8-.53.27-1.05.54-1.6.83-.45.24-.89.48-1.33.71-.48.26-.96.52-1.43.79-.53.29-1.06.59-1.56.88-1.67.96-3.11,1.83-4.39,2.66-.06.03-.1.07-.14.08h-.02s-.3.21-.3.21c-.39.24-.78.5-1.19.77l-.08.06c-.09.07-.2.12-.26.17l-.36.24c-.37.24-.74.5-1.11.75h-.02s-.02.03-.02.03l-.28.19-.26.19c-.18.11-.35.24-.52.37l-.12.08c-.3.21-.6.42-.89.63-.43.31-.87.63-1.29.95l-.18.13c-.66.49-1.31.99-1.93,1.47-1.06.83-2.14,1.7-3.29,2.66-.35.3-.7.59-1.05.9-.36.29-.68.57-1.05.91-.28.23-.55.48-.83.72l-.23.22c-1,.89-2.02,1.82-3.1,2.85-.39.36-.74.68-1.06,1-4.65,4.49-9.25,9.36-14.57,15.02-6.89,7.33-14.7,15.63-25.11,25.68-18.63,16.89-37.78,31.49-58.53,44.6-5.95,3.72-11.07,6.65-16.03,9.51-12.53,7.19-23.34,13.39-39.01,27.63-6.2,5.63-12.38,11.73-16.94,16.75-6.49,7.24-12.4,15.07-18.64,23.36-7.01,9.31-14.25,18.94-22.55,27.84l-.03.03-.02.03c-22.64,25.79-50.63,49.45-83.04,76.84-2.31,1.95-4.64,3.92-6.98,5.91-15.85,13.34-28.7,23.8-44.37,36.08-4.27,3.33-8.17,6.32-11.63,8.96-12.55,9.61-21.62,16.56-32.66,27.86-15.03,14.56-25.86,29.81-36.34,44.56-4.55,6.41-9.25,13.03-14.27,19.56-31.52,37.77-60.92,71.23-101.59,98.28-8.66,5.75-19.17,11.74-26.8,15.27-2.84,1.26-5.72,2.49-8.5,3.68-16.52,7.08-32.14,13.76-47.21,27-30.48,24.39-55.78,61.53-68.21,85.96-5.11,9.24-9.07,18.87-12.89,28.18-5.34,13-10.38,25.28-17.43,32.93l-.02.03-.03.03c-4.28,4.91-10.24,10.01-16.35,14.02-5.76,3.77-10.9,5.97-15.87,8.1-4.85,2.07-9.87,4.22-15.37,7.76-4.89,3.1-10.35,7.63-15.38,12.74-8.47,8.63-12.28,15.45-16.33,22.67-2.34,4.19-4.76,8.5-8.26,13.49-4.14,5.93-9.65,12.48-15.08,17.93-6.12,6.01-12.05,10.26-18.33,14.75-6.45,4.63-13.12,9.4-19.87,16.18-.79.68-3.55,2.48-7.02,4.74-11.49,7.47-35.39,23.03-67.05,48.83-.75.6-1.49,1.21-2.24,1.83-.17.13-.32.25-.46.38-1.4,1.14-2.82,2.32-4.24,3.5l-2.36,1.96c-.76.64-1.52,1.28-2.3,1.93l-.89.76c-1.33,1.12-2.67,2.26-4.03,3.43l-.87.75c-.34.29-.68.58-1.02.88-.58.49-1.22,1.04-1.92,1.66-.34.29-.68.58-1.01.88l-.86.75c-1.32,1.14-2.66,2.32-3.99,3.5-1.31,1.14-2.62,2.32-3.94,3.49-1.84,1.64-3.47,3.11-4.97,4.48l-1.75,1.58-.02.02-.03.03-.17.16c-.08.08-.15.15-.26.24l-1.95,1.78c-.64.6-1.29,1.19-1.94,1.79-.45.4-.89.82-1.34,1.23l-.64.6c-1.36,1.26-2.56,2.37-3.66,3.42-.73.68-1.45,1.36-2.18,2.05l-1.03.97c-1.97,1.87-4.13,3.93-6.62,6.32l-1.91,1.85c-.46.45-.93.91-1.39,1.36-1.03.99-2.05,2-3.11,3.03l-.25.25c-.94.91-1.88,1.84-2.82,2.78-3.56,3.51-6.86,6.83-10.1,10.14-1.14,1.15-2.3,2.35-3.44,3.53-2.36,2.43-4.78,4.94-7.16,7.44-.94.98-1.87,1.96-2.81,2.96l-.8.85c-.62.65-1.23,1.29-1.82,1.93-.62.66-1.23,1.3-1.82,1.94-.9.96-1.79,1.92-2.69,2.89l-.1.11c-4.2,4.53-8.49,9.25-12.74,14.01-.94,1.04-1.88,2.09-2.78,3.12-.63.69-1.25,1.4-1.85,2.08-1.02,1.16-2.05,2.33-3.08,3.51l-1.56,1.78-.31.35c-.2.23-.4.47-.61.71-1.15,1.32-2.3,2.64-3.45,3.98-.05.06-.1.12-.15.18l-.08.09-.02.03-.03.03c-2.2,2.56-4.52,5.21-6.92,7.87l-.91,1.01c-.64.71-1.29,1.43-1.94,2.15-.95,1.05-1.9,2.1-2.87,3.14l-.02.03-.03.02c-.17.2-.35.39-.53.58l-.02.03-.02.02c-1.77,1.93-3.6,3.88-5.45,5.82-.21.22-.41.44-.63.67s-.43.45-.64.68c-.73.78-1.48,1.55-2.23,2.33l-.77.8c-.98,1.02-1.99,2.06-3.02,3.11l-.46.47c-.17.17-.33.33-.49.5l-.05.05-.02.02-.03.03-.14.14c-2.07,2.12-3.79,3.84-5.4,5.42l-.35.35c-.24.23-.49.48-.73.72l-.41.41c-.14.14-.28.27-.44.42-.65.65-1.3,1.28-1.96,1.93-1.72,1.7-3.46,3.38-4.95,4.79-.91.88-1.82,1.75-2.76,2.64-2.06,1.97-4.33,4.1-7.13,6.71-1.12,1.04-2.25,2.09-3.42,3.16-.48.45-.98.9-1.47,1.36-2.34,2.13-4.5,4.09-6.62,5.99-1.18,1.05-2.36,2.1-3.56,3.16-1.18,1.04-2.37,2.1-3.56,3.13-.17.15-.35.3-.53.46-.16.14-.33.28-.51.43-1.08.95-2.15,1.89-3.24,2.82l-.42.38c-.8.69-1.6,1.39-2.41,2.08l-1.26,1.08-3.7,3.17c-.63.53-1.26,1.05-1.88,1.58-.63.53-1.25,1.06-1.88,1.59-1.16.99-2.35,1.97-3.52,2.96l-1.11.92c-1.29,1.07-2.57,2.14-3.87,3.21-2.45,2.02-5,4.1-7.8,6.37l-.67.53-.68.55-.14.11-.14.12-1.25,1-1.24,1-.28.23-.22.29c-.93,1.26-1.9,2.46-2.89,3.57-2.35,2.65-4.95,5.01-7.69,7.52-2.6,2.36-5.28,4.81-7.73,7.52-6.05,6.7-10.37,14.65-14.19,21.66-29.83,54.88-57.11,111.95-81.06,169.63-15.23,36.68-30.07,76.21-35.47,116.83-1.71,12.8-2.41,25.39-2.1,37.41.38,14.48,2.23,28.98,5.53,43.08.15.65.3,1.3.46,1.96,1.75,7.41,3.57,15.08,1.43,21.88-1.62,5.15-7.03,9.51-11.8,9.51-1.42,0-2.72-.38-3.89-1.14-12.48-7.98-12.87-25.24-13.26-41.93-.06-2.67-.12-5.45-.23-8.09-.6-13.53-3.59-26.87-6.48-39.77-1.69-7.53-3.44-15.3-4.67-22.99-.6-3.74-1.03-7.12-1.32-10.33-2.93-31.83,6.1-63.59,14.83-94.3,5.12-18.01,10.42-36.63,13.36-55.32,1.46-9.21,2.48-19.12,3.18-31.2v-.09c.5-8.32.8-16.8,1.08-24.98.57-16.29,1.16-33.14,3.31-49.49,6.01-45.58,24.69-86.34,52.59-114.78,7.99-8.14,16.94-15.61,25.58-22.84,6.29-5.25,12.78-10.67,18.92-16.35,12.59-11.65,19.57-23.68,26.96-36.44,1.87-3.2,3.79-6.52,5.85-9.92.19-.3.38-.61.6-.96,1.02-1.59,2.2-3.19,3.49-4.78,7.21-8.87,17.84-16.96,28.11-24.77,5.97-4.53,11.61-8.82,16.57-13.22.5-.45,1-.9,1.48-1.34,1.14-1.04,2.63-2.42,4.12-3.83l.37-.34c.27-.25.55-.51.8-.74.4-.38.8-.75,1.18-1.12,1.24-1.17,2.48-2.35,3.69-3.51.55-.53,1.12-1.08,1.66-1.6.61-.57,1.2-1.16,1.78-1.74,1.18-1.16,2.36-2.33,3.53-3.49.74-.72,1.47-1.45,2.21-2.21l1.08-1.1c.73-.74,1.46-1.47,2.16-2.2.73-.73,1.47-1.49,2.24-2.32,1.05-1.1,2.11-2.21,3.15-3.31.71-.76,1.44-1.53,2.15-2.3,1.06-1.14,2.11-2.29,3.13-3.42.67-.71,1.33-1.45,2.01-2.23,1.14-1.26,2.27-2.55,3.37-3.82l.22-.24c.18-.21.36-.41.54-.61l.04-.04.03-.04c.46-.53.91-1.04,1.32-1.54.66-.76,1.3-1.52,1.92-2.27.82-.96,1.63-1.92,2.42-2.89,1.91-2.32,3.62-4.35,5.21-6.23l.02-.03.03-.03c.21-.26.43-.53.66-.79.26-.3.53-.61.77-.9l1.9-2.24.85-1c.35-.4.69-.82,1.04-1.22.52-.61,1.04-1.22,1.6-1.85,1.19-1.38,2.37-2.74,3.55-4.09l.28-.32c.1-.12.22-.24.32-.37.12-.14.24-.28.36-.41.2-.23.4-.46.59-.68l.08-.09c.94-1.06,1.88-2.12,2.81-3.17l1.76-1.98c.35-.39.69-.78,1.06-1.19,1.33-1.47,3.08-3.43,4.85-5.37l.12-.12c.85-.94,1.7-1.87,2.57-2.8l.07-.07c.86-.94,1.73-1.88,2.6-2.82,1.65-1.78,3.39-3.63,5.31-5.65l.02-.03.02-.02c.1-.11.22-.23.32-.34l.21-.22c1.69-1.77,3.37-3.53,5.05-5.25l.12-.13.02-.03.04-.04c.87-.9,1.74-1.78,2.6-2.67,2.73-2.81,5.4-5.51,7.97-8.04,1.42-1.41,2.82-2.8,4.22-4.18l1.03-1.01c.96-.94,1.92-1.87,2.88-2.8,1.65-1.6,3.29-3.16,4.91-4.71.86-.82,1.72-1.63,2.57-2.43,1.12-1.05,2.24-2.1,3.36-3.14.73-.69,1.47-1.37,2.23-2.06l.38-.35.38-.35.04-.04.04-.04.07-.07s.03-.03.05-.04l1.06-.81v-.18c.26-.24.53-.49.83-.75.36-.33.71-.66,1.08-.99l.04-.03.03-.03c.12-.11.25-.23.38-.34l.07-.07c.24-.23.5-.46.74-.68l.04-.03.03-.03c.81-.74,1.62-1.48,2.43-2.2l1.87-1.67.15-.15c45.58-40.69,83.42-64.54,101.61-76.01,6.62-4.17,10.6-6.68,12.41-8.32l.03-.03.03-.02c5.69-5.45,9.5-9.66,13.18-13.71,5.19-5.71,10.1-11.12,19.81-19.56,4.75-4.14,9.81-8.35,14.64-12.18,7.69-6.19,39.37-30.87,68.04-51.44,21.84-15.1,40.87-29.35,52.66-50.87,6.18-11.16,14.67-22.67,21.64-29.33,2.34-2.09,4.71-4.17,7.01-6.17,8.1-7.08,16.48-14.38,23.86-23.29,4.01-4.21,7.23-9.03,10.35-13.69,4.82-7.22,9.37-14.03,16.43-18.35l.03-.02.03-.02c2.33-1.5,4.93-2.83,7.67-4.24,5.87-3,12.52-6.41,17.63-12.37,5.03-5.43,6.65-11.78,8.23-17.92.65-2.5,1.3-5.08,2.2-7.58v-.04s.03-.04.03-.04c1.29-4,3.69-8.08,6.01-12.03,2.34-3.99,4.55-7.75,5.65-11.41l.02-.05v-.05c1.63-6.18,1.06-12.3.51-18.22-.36-3.8-.72-7.73-.48-11.55v-.12s0-.12,0-.12c-.03-1.32-.03-2.64-.02-3.9,0-5.51.02-10.71-2.28-16.24-.77-1.9-1.73-3.7-2.66-5.42-1.16-2.18-2.26-4.23-2.93-6.33-3-9.97,6.11-22.64,16.28-27.31,4.86-2.27,9.7-3.41,14.8-3.47h.4c9.4,0,19.41,3.72,31.46,11.69l.1.07.09.06c10.79,5.95,26.62,13.86,39.48,13.86,10.43,0,17.33-5.25,19.97-15.19,2.18-7.16,7.43-11.23,13.01-15.54,3.47-2.68,7.08-5.47,10.12-9.12,9.08-10.31,19.43-20.52,29.45-30.39,8.26-8.14,16.8-16.57,24.56-24.99l.07-.08.07-.08c1.6-2.01,3.13-4.21,4.76-6.53,3.07-4.37,6.23-8.9,9.59-11.77l.03-.02.02-.03c3.45-3.1,7.69-5.13,12.18-7.28.74-.36,1.48-.71,2.22-1.08h.03s.04-.03.04-.03c17.1-8.91,32.58-25.73,46.04-50,10.94-16.94,35.2-35.79,63.42-56.9l4.92-3.68c15.72-11.74,31.97-23.87,45.75-35.85,7.71-6.71,13.6-11.8,20.4-17.7l6.12-5.29c9.72-8.38,20.63-18,32.39-28.55.4-.36.81-.72,1.21-1.08,1.85-1.66,3.71-3.33,5.56-5.01,8.76-7.91,17.71-16.08,26.59-24.29.48-.44.95-.87,1.45-1.33.49-.44.98-.88,1.49-1.35.49-.45.99-.9,1.49-1.36.3-.27.59-.54.89-.81l.03-.02.02-.02c.7-.65,1.42-1.3,2.14-1.95l.69-.62c.4-.37.82-.73,1.25-1.12.84-.75,1.69-1.52,2.52-2.29,25.69-23.02,60.19-52.59,90.62-78.69l1.42-1.21c1.01-.87,2.03-1.75,3.05-2.62,1.17-1.01,2.34-2.01,3.49-2.99,26.71-4.9,50.34-20.47,65.84-31.82,6.73-4.91,13.4-10.12,19.85-15.15,14.38-11.2,29.23-22.79,45.33-31.66,24.34-13.42,51.71-20.84,78.18-28.01l63.93-17.35c16.07-4.36,34.3-9.32,52.06-9.78.89-.03,1.79-.04,2.68-.04,1.74,0,3.51.05,5.28.14,15.42.81,30.66,5.43,45.4,9.91,6.38,1.94,12.99,3.95,19.56,5.64,2.15.54,4.34,1.08,6.45,1.59,8.95,2.17,18.2,4.41,26.19,8.81,8.1,4.47,14.93,11.11,21.53,17.54,26.23,25.51,58.86,57.28,68.24,97.46,3.23,13.84,3.62,27.86,3.78,43.44.13,12.83.11,25.84-.06,38.67Z" style="fill: #00c8ff;"/>
  </g>
  <g id="water_edge">
    <path d="M1998.07,372.43c-.15-14.76-.5-29.66-3.86-44.04-9.26-39.7-39.79-70.41-69.01-98.84-6.83-6.65-13.78-13.38-22.13-17.99-10.24-5.64-21.97-7.75-33.29-10.66-21.8-5.59-43.04-14.45-65.52-15.63-1.81-.09-3.62-.14-5.43-.14-.92,0-1.84.01-2.76.04-17.82.46-35.43,5.18-52.72,9.88-21.31,5.78-42.62,11.56-63.93,17.34-27,7.32-54.31,14.76-78.81,28.26-23.55,12.98-43.76,31.15-65.48,47.01-19.7,14.42-41.55,27.27-65.43,31.46-1.35,1.15-2.71,2.32-4.08,3.5-1.01.86-2.03,1.73-3.05,2.62-30.47,26.12-65.95,56.53-92.07,79.93-.85.78-1.7,1.54-2.53,2.29-.66.59-1.3,1.17-1.94,1.74-.73.66-1.45,1.31-2.16,1.97-.31.27-.62.55-.93.84-.51.45-1.02.91-1.51,1.37-.5.45-1,.91-1.49,1.36-.48.44-.96.88-1.44,1.32-8.69,8.03-17.63,16.2-26.57,24.27-1.86,1.68-3.72,3.35-5.57,5.01-.39.36-.79.72-1.18,1.07-1.04.93-2.08,1.86-3.11,2.79-2.08,1.85-4.14,3.7-6.2,5.53-1.03.91-2.05,1.82-3.08,2.73-2.73,2.42-5.44,4.81-8.12,7.16-4.02,3.53-7.99,6.98-11.86,10.32-9.74,8.43-16.61,14.37-26.53,23-13.24,11.51-28.64,23.07-43.96,34.5-2.19,1.64-4.37,3.27-6.55,4.9-27.03,20.21-52.65,39.84-64.16,57.71-10.43,18.84-25.38,38.76-44.92,48.94-5.23,2.57-10.68,4.88-15.04,8.8-5.44,4.65-10.1,12.85-14.72,18.68-17.09,18.54-37.39,36.5-54.07,55.46-7.73,9.3-19.85,12.96-23.69,25.72-.64,2.44-1.54,4.48-2.65,6.17-.28.42-.57.83-.87,1.2-.3.38-.61.73-.95,1.07-.16.17-.33.33-.5.5-.26.25-.53.48-.81.69-.15.13-.32.26-.48.38-.01,0-.01.01-.02.01-.03.02-.05.04-.08.06-.02,0-.03.02-.05.03-.15.11-.31.22-.47.32-.28.19-.57.36-.86.53-.15.08-.29.16-.44.23-.29.15-.58.29-.88.42-.17.08-.34.15-.51.21-.42.17-.85.32-1.29.45-.05.02-.1.04-.15.05-.14.04-.29.08-.44.12-.05.01-.1.03-.16.04-.2.05-.4.1-.6.15-.23.05-.46.1-.69.13-.23.05-.46.09-.7.12-.05.01-.1.02-.16.02-.24.04-.49.07-.74.1-.3.03-.61.05-.92.08-.22,0-.45.02-.68.03-.38.02-.77.03-1.16.03-.45,0-.9-.01-1.36-.03h-.01c-.35-.02-.7-.04-1.06-.07-.41-.03-.82-.07-1.24-.11-.31-.04-.63-.08-.94-.12-.2-.03-.41-.05-.61-.09-.03,0-.05-.01-.08-.01-.3-.04-.59-.09-.89-.15-.43-.07-.85-.14-1.28-.23-.43-.08-.86-.18-1.29-.28-.43-.1-.87-.2-1.3-.32-1.29-.32-2.6-.7-3.9-1.11-.44-.14-.88-.28-1.31-.43-.43-.14-.86-.29-1.29-.44-6.06-2.16-11.96-5.02-16.81-7.56-.69-.36-1.36-.71-2.01-1.07-.96-.51-1.88-1.02-2.74-1.49-.33-.22-.65-.43-.98-.64-.98-.64-1.96-1.26-2.96-1.87-.66-.4-1.32-.8-1.98-1.18-.51-.29-1.01-.57-1.51-.85-.51-.28-1.01-.56-1.51-.82-.67-.36-1.34-.7-2.02-1.03-.68-.34-1.35-.66-2.04-.97-.47-.21-.94-.42-1.42-.63-.55-.23-1.1-.46-1.66-.68-.52-.2-1.03-.4-1.55-.59-.52-.19-1.04-.37-1.56-.54-.35-.12-.7-.23-1.06-.34-.24-.08-.49-.15-.73-.21-.35-.11-.71-.21-1.06-.3-.45-.12-.89-.23-1.34-.34-.38-.09-.77-.18-1.15-.26-.22-.05-.43-.09-.64-.13-.31-.06-.63-.12-.95-.17-.45-.08-.91-.15-1.37-.22-.97-.14-1.95-.24-2.94-.3-.38-.03-.76-.05-1.14-.06-.48-.02-.96-.03-1.45-.03h-.43c-5.22.06-10.52,1.19-15.96,3.73-11.02,5.06-21.33,18.88-17.78,30.67,1.33,4.22,4.02,7.93,5.67,12,2.61,6.28,1.95,12.27,2.09,19.15-.66,9.97,2.58,19.65.06,29.25-2.06,6.86-8.95,15.04-11.64,23.38-3.11,8.75-3.35,17.56-9.87,24.57-6.99,8.18-17.06,11.18-24.73,16.12-12.41,7.62-17.47,22.17-27.41,32.58-9.32,11.26-20.05,19.73-30.68,29.27-7.86,7.5-16.57,19.89-22.18,30.03-11.76,21.45-31.64,35.97-51.83,49.93-27.64,19.83-59.27,44.38-68.18,51.55-4.78,3.8-9.84,8-14.72,12.25-16.78,14.59-19.52,20.35-33.1,33.36-3.85,3.49-21.8,13.35-48.54,32.2-1.41.99-2.84,2-4.29,3.05-.73.51-1.47,1.04-2.21,1.58-1.11.8-2.23,1.61-3.36,2.45-1.14.82-2.28,1.67-3.44,2.53-.78.57-1.56,1.15-2.34,1.74-1.18.88-2.36,1.77-3.56,2.68-1.2.91-2.42,1.83-3.64,2.77-5,3.82-10.18,7.91-15.53,12.26-.77.62-1.54,1.25-2.31,1.88h-.01c-1.42,1.16-2.85,2.35-4.29,3.55-1.4,1.15-2.8,2.33-4.21,3.52-.36.3-.71.6-1.07.9-1.7,1.44-3.41,2.91-5.14,4.4-.41.35-.81.7-1.22,1.05-1.55,1.34-3.11,2.7-4.68,4.09-.71.61-1.41,1.24-2.11,1.86-.35.31-.71.62-1.05.93-.36.3-.7.62-1.06.93-.03.03-.06.05-.1.09-.62.56-1.24,1.11-1.86,1.67-.82.73-1.65,1.48-2.46,2.23-.28.24-.56.49-.83.75-.15.13-.3.26-.45.4-.38.34-.76.69-1.13,1.03-.59.53-1.16,1.06-1.73,1.59h0s-.08.07-.11.1c-.05.05-.1.09-.14.13l-.1.1-.75.69c-.75.69-1.5,1.38-2.24,2.08-1.12,1.04-2.24,2.09-3.37,3.15-.85.8-1.72,1.61-2.58,2.44-1.62,1.55-3.27,3.12-4.92,4.72-.96.93-1.93,1.87-2.9,2.81-1.74,1.72-3.51,3.45-5.27,5.21-2.66,2.63-5.32,5.32-8,8.07-.89.91-1.78,1.83-2.68,2.76-.04.04-.07.07-.1.11-1.68,1.74-3.37,3.5-5.06,5.28-.19.19-.39.39-.57.6-1.78,1.86-3.56,3.76-5.33,5.67-.89.96-1.79,1.93-2.68,2.89-.9.97-1.79,1.95-2.69,2.93-1.62,1.77-3.25,3.58-4.87,5.39-.37.4-.72.79-1.08,1.2-1.51,1.71-3.04,3.42-4.57,5.16-.22.25-.46.52-.69.79-.23.26-.46.52-.69.79-1.27,1.45-2.54,2.91-3.82,4.4-.54.62-1.08,1.23-1.61,1.86-.63.74-1.26,1.48-1.9,2.23-.63.74-1.26,1.49-1.9,2.24-.25.29-.49.58-.74.87-.26.29-.5.58-.73.88-1.75,2.06-3.49,4.14-5.23,6.25-.79.96-1.59,1.92-2.39,2.87-.63.75-1.27,1.5-1.92,2.25-.43.51-.87,1.02-1.31,1.53-.28.3-.55.61-.82.92-1.11,1.27-2.22,2.54-3.35,3.8-.64.73-1.29,1.46-1.97,2.18-1.04,1.15-2.09,2.29-3.14,3.43-.71.76-1.42,1.52-2.13,2.27-1.04,1.11-2.1,2.21-3.15,3.31-.71.76-1.44,1.52-2.19,2.27-1.08,1.11-2.17,2.21-3.26,3.32-.72.73-1.44,1.45-2.17,2.17-1.17,1.17-2.34,2.32-3.52,3.47-.59.59-1.17,1.16-1.76,1.72-.55.54-1.11,1.07-1.66,1.6-1.22,1.18-2.45,2.34-3.68,3.51-.38.36-.77.73-1.16,1.09-.39.37-.78.73-1.16,1.08-1.37,1.29-2.74,2.56-4.11,3.82-.47.43-.96.87-1.45,1.31-13.6,12.05-33.41,24.07-45,38.33-1.35,1.64-2.57,3.32-3.67,5.03-.23.34-.43.67-.64,1.01-10.38,17.13-16.97,31.55-32.32,45.76-14.53,13.46-30.69,25.1-44.59,39.27-30.41,31.01-47.68,73.34-53.36,116.39-3.27,24.74-2.94,49.83-4.41,74.75h0c-.61,10.36-1.53,20.69-3.15,30.94-8,50.6-32.9,99.29-28.22,150.31.32,3.53.79,7.03,1.35,10.53,3.35,20.88,10.19,41.29,11.12,62.43.83,18.9-1.15,42.08,14.8,52.27,1.68,1.1,3.53,1.59,5.4,1.59,1.19,0,2.4-.2,3.58-.57.33-.1.66-.21.99-.34.38-.15.74-.31,1.11-.49.54-.27,1.08-.57,1.6-.9.28-.18.55-.36.81-.56.67-.47,1.3-.99,1.89-1.56.08-.08.16-.15.23-.23,1.95-1.92,3.48-4.29,4.28-6.83,2.57-8.18.11-16.97-1.83-25.32-3.26-13.94-5.09-28.21-5.45-42.52-.32-12.42.45-24.75,2.07-36.97,5.3-39.89,19.75-78.71,35.28-116.12,24.02-57.81,51.05-114.37,80.95-169.37,4.02-7.4,8.15-14.86,13.8-21.11,4.82-5.33,10.66-9.67,15.43-15.05,1.08-1.21,2.09-2.47,3.05-3.76.82-.67,1.66-1.34,2.48-2.01.11-.09.2-.16.3-.24.44-.36.89-.73,1.34-1.08,2.61-2.12,5.22-4.25,7.81-6.39,1.3-1.07,2.59-2.14,3.88-3.21,1.55-1.3,3.1-2.59,4.64-3.9,1.25-1.05,2.5-2.11,3.75-3.16,1.23-1.06,2.47-2.12,3.71-3.18,1.23-1.06,2.47-2.12,3.69-3.18,1.23-1.07,2.45-2.13,3.67-3.2.34-.29.67-.59,1.01-.88,1.2-1.05,2.4-2.12,3.59-3.17,1.2-1.06,2.38-2.11,3.56-3.17,2.24-2,4.44-4,6.64-6,.5-.46,1.01-.92,1.51-1.39,1.14-1.05,2.29-2.1,3.41-3.15,2.41-2.24,4.8-4.48,7.15-6.73.93-.88,1.85-1.76,2.77-2.64,1.67-1.6,3.33-3.21,4.97-4.83.66-.64,1.31-1.28,1.97-1.93.29-.28.57-.56.86-.84.36-.37.72-.72,1.08-1.08,1.83-1.8,3.63-3.62,5.41-5.44.09-.09.17-.16.25-.25.31-.31.63-.63.94-.96,1.04-1.04,2.05-2.09,3.04-3.13,1.01-1.04,2.02-2.08,3.02-3.13.42-.45.85-.9,1.27-1.35,1.86-1.94,3.68-3.89,5.47-5.84.22-.22.43-.45.62-.67.97-1.06,1.94-2.11,2.89-3.17.96-1.05,1.91-2.11,2.86-3.16,2.36-2.64,4.68-5.27,6.96-7.93.08-.09.17-.19.25-.29,1.16-1.35,2.32-2.68,3.48-4.01.3-.36.61-.71.91-1.06l1.55-1.77c1.02-1.17,2.05-2.34,3.07-3.49.6-.69,1.21-1.38,1.83-2.06.92-1.06,1.85-2.1,2.78-3.13,4.27-4.78,8.51-9.45,12.71-13.98.93-1,1.85-2,2.78-2.98.6-.65,1.21-1.3,1.82-1.95.6-.64,1.2-1.28,1.81-1.92.27-.29.54-.58.82-.87.93-.99,1.85-1.96,2.78-2.94,2.4-2.52,4.78-4.99,7.14-7.42,1.15-1.18,2.3-2.37,3.44-3.52,3.39-3.46,6.75-6.83,10.07-10.12.94-.94,1.87-1.85,2.8-2.77.1-.09.18-.17.28-.27,1.02-1,2.04-2.01,3.06-2.99.47-.46.93-.91,1.39-1.35.65-.63,1.29-1.25,1.93-1.87,2.21-2.13,4.41-4.23,6.58-6.3,1.07-1,2.13-2,3.19-2.99,1.22-1.15,2.44-2.29,3.65-3.4.66-.61,1.32-1.23,1.97-1.83.66-.61,1.32-1.21,1.97-1.81.64-.59,1.29-1.18,1.93-1.76.16-.14.31-.29.47-.44.58-.53,1.17-1.06,1.74-1.58,1.67-1.52,3.32-3,4.97-4.46,1.31-1.18,2.61-2.34,3.92-3.49,1.33-1.18,2.66-2.34,3.98-3.49.63-.54,1.25-1.08,1.87-1.62.63-.56,1.27-1.12,1.91-1.65.64-.55,1.28-1.1,1.9-1.64,1.35-1.16,2.68-2.29,4-3.41,1.07-.9,2.13-1.8,3.18-2.67.79-.66,1.58-1.32,2.36-1.97,1.42-1.19,2.84-2.36,4.24-3.5.13-.12.25-.22.38-.31.76-.63,1.52-1.25,2.28-1.86,42.51-34.65,70.81-50.65,74.24-53.71,12.92-13,25.4-18.37,38.24-30.98,5.44-5.46,11.03-12.05,15.41-18.32,9.65-13.76,11.24-22.51,24.29-35.81,4.35-4.43,9.75-9.09,14.88-12.34,10.94-7.04,19.67-8.28,31.27-15.88,6.07-3.98,12.25-9.17,16.92-14.52,12.44-13.51,18.3-39.26,30.73-61.69,13.56-26.68,39.28-62.54,67.54-85.13,17.33-15.25,35.81-21.79,55.05-30.26,8.41-3.89,19.18-10.16,27.2-15.49,41.33-27.5,71.51-62.07,102.23-98.87,16.67-21.69,29.07-43.23,50.4-63.89,13.94-14.27,24.35-21.24,44.03-36.6,15.61-12.23,28.62-22.82,44.45-36.15,35.52-30.06,65.94-55.26,90.33-83.04,15.62-16.79,27.36-35.79,41.21-51.24.3-.33.61-.67.93-1.01.31-.34.63-.68.96-1.03.46-.49.94-.99,1.42-1.49.29-.3.58-.6.88-.91.88-.91,1.79-1.83,2.71-2.75,1.22-1.21,2.46-2.42,3.7-3.61.42-.4.83-.8,1.24-1.19,1.66-1.58,3.31-3.11,4.9-4.55,21.4-19.44,33.12-23.4,54.63-36.82,21.2-13.4,40.51-28.2,58.97-44.94,18.55-17.9,29.13-30.56,39.73-40.74.34-.34.67-.66,1.01-.97,1.01-.96,2.02-1.9,3.04-2.81.35-.31.69-.61,1.03-.91.35-.31.69-.61,1.04-.89.34-.31.69-.6,1.04-.89,1.05-.88,2.11-1.74,3.21-2.6.62-.49,1.25-.96,1.89-1.44.47-.35.95-.71,1.43-1.04.28-.21.57-.42.86-.61.2-.15.4-.3.6-.43.2-.14.41-.28.6-.42.48-.33.96-.65,1.45-.97.12-.09.25-.16.37-.25.46-.31.94-.61,1.41-.91.04-.02.07-.05.1-.06,1.39-.9,2.84-1.76,4.34-2.62.5-.29,1-.58,1.52-.87.46-.26.93-.51,1.4-.77.43-.23.87-.46,1.31-.7.53-.27,1.05-.54,1.59-.83.49-.25.99-.5,1.51-.76.5-.25,1.02-.5,1.55-.76.53-.26,1.08-.51,1.62-.77.52-.25,1.06-.5,1.6-.75.44-.19.87-.39,1.32-.59.43-.2.88-.4,1.33-.6.64-.28,1.29-.56,1.94-.84.27-.11.52-.23.78-.33,2.08-.88,4.26-1.77,6.54-2.66.36-.15.71-.28,1.07-.42.45-.18.9-.34,1.35-.51.42-.17.86-.33,1.28-.49.43-.16.87-.32,1.3-.49.28-.09.55-.2.82-.3h.01c.73-.27,1.48-.54,2.24-.82.17-.06.37-.16.59-.28.06-.03.12-.06.18-.1.24-.13.5-.29.79-.48.19-.12.39-.25.62-.4.15-.11.3-.21.46-.32.19-.14.39-.28.6-.43.13-.1.26-.19.39-.29.52-.37,1.08-.79,1.68-1.25.21-.15.42-.31.62-.48.22-.16.43-.33.66-.51.21-.17.45-.35.68-.53,2.03-1.59,4.42-3.53,7.16-5.8,9.72-.67,19.2-2.44,28.25-6.28,20.59-8.73,35.69-26.9,55.26-37.72,25.01-13.82,55.37-14.63,81.19-26.88,13.61-6.47,25.61-15.96,39.21-22.45,13.28-6.34,27.81-9.69,42.38-11.84,1.03-.15,2.06-.3,3.09-.44.37-.05.75-.09,1.12-.14.69-.09,1.39-.19,2.1-.27.7-.09,1.41-.17,2.11-.25,1.41-.16,2.82-.31,4.23-.44.71-.07,1.42-.13,2.12-.2.71-.06,1.41-.12,2.12-.18.47-.03.93-.07,1.4-.09.9-.07,1.81-.13,2.72-.19.74-.05,1.5-.08,2.25-.12.71-.04,1.42-.07,2.13-.1.54-.02,1.07-.04,1.61-.06.17-.01.35-.01.52-.02.36-.01.72-.02,1.08-.02.7-.02,1.4-.03,2.1-.04,1.06-.02,2.12-.03,3.18-.03h.02c1.14,0,2.28.01,3.42.03h.04c1.12,0,2.23.04,3.34.09h.05c1.15.04,2.29.08,3.43.15,1.14.06,2.28.13,3.42.21,1.14.08,2.28.17,3.41.27.57.05,1.14.11,1.7.17.57.06,1.13.12,1.7.18.56.06,1.13.12,1.69.19.57.07,1.14.14,1.7.21h.01c1.12.15,2.25.31,3.37.48h.01c2.25.34,4.49.73,6.72,1.16h.01c1.11.22,2.23.45,3.33.69h.01c1.67.37,3.33.76,4.98,1.18.55.14,1.1.28,1.65.43.55.15,1.1.3,1.65.45,1.1.3,2.19.62,3.28.95.54.17,1.09.34,1.63.51,1.09.35,2.17.71,3.25,1.08,27.95,9.67,53.21,29.26,65.74,56.05,5.42,11.57,8.37,24.11,11.29,36.54,1.45,6.15,2.88,12.28,4.33,18.43,2.75,11.79,5.52,23.57,8.28,35.36,2.69,11.47,5.41,23.26,3.81,34.94-1.22,8.93-4.91,18.07-2.12,26.64.2.07.39.13.59.18.36.09.72.16,1.07.19.21.02.41.03.61.03.23,0,.45,0,.67-.04.13,0,.26-.03.39-.06,1.9-.33,3.54-1.57,4.89-3.32.54-.69,1.02-1.45,1.46-2.28.15-.27.29-.55.43-.84.07-.15.14-.3.2-.45.12-.27.25-.55.36-.83.12-.29.23-.57.33-.86.33-.91.62-1.84.86-2.79.06-.24.12-.48.18-.73.07-.31.13-.63.2-.94.05-.25.09-.5.13-.75l.03-.15s.01-.07.01-.1c.07-.45.13-.89.18-1.33.03-.23.05-.46.08-.69.02-.23.03-.46.05-.69,1.59-26.8,2.57-53.64,2.9-80.49.17-12.91.19-25.82.06-38.74ZM1995.2,411.13c-.34,26.57-1.31,53.6-2.9,80.36-.41,6.71-3.76,14.21-7.64,14.21h-.02c-1.12-5.06.03-10.5,1.24-16.22.53-2.49,1.07-5.06,1.42-7.62,1.69-12.35-1.26-24.9-3.86-35.97-1.38-5.89-2.76-11.79-4.14-17.68-1.39-5.89-2.76-11.79-4.14-17.69-.73-3.07-1.45-6.13-2.16-9.21-.72-3.07-1.45-6.14-2.17-9.22-2.91-12.38-5.91-25.19-11.48-37.08-12.14-25.95-36.69-46.91-67.37-57.52-16.5-5.7-34.91-8.59-54.73-8.59-10.94,0-22.47.88-34.3,2.62-17.64,2.6-31.36,6.45-43.18,12.09-6.92,3.3-13.47,7.38-19.8,11.33-6.25,3.91-12.72,7.93-19.41,11.11-11.8,5.6-24.92,8.85-37.62,11.98-14.78,3.66-30.07,7.44-43.72,14.98-8.84,4.89-16.82,11.27-24.54,17.44-9.93,7.93-19.3,15.43-30.46,20.16-7.92,3.36-16.86,5.34-27.34,6.06l-.9.06-.7.58c-2.84,2.36-5.17,4.24-7.12,5.77-.14.11-.28.22-.42.32l-.26.21c-.2.16-.39.31-.58.45l-.05.03-.06.05c-.16.13-.33.26-.49.38l-.03.03h-.03c-.58.46-1.12.87-1.6,1.22l-.41.29-.24.16c-.12.09-.24.18-.36.27-.14.09-.28.19-.37.25-.15.1-.29.19-.42.27l-.17.12c-.24.15-.44.28-.64.38l-.09.06-.04.02h-.01c-.13.08-.22.12-.24.13-.59.21-1.19.42-1.76.63h-.02l-.48.18c-.25.1-.49.19-.74.28h-.05s-.05.04-.05.04c-.33.12-.66.25-.98.37l-.3.1-.27.1c-.34.14-.68.27-1.03.4-.45.18-.91.35-1.36.52-.17.07-.34.14-.51.2-.19.07-.37.14-.55.22-2.18.84-4.34,1.72-6.58,2.67-.22.09-.44.18-.66.27l-.16.08c-.67.29-1.33.57-1.97.85-.47.21-.92.42-1.38.62-.45.2-.88.4-1.29.58-.41.19-.82.38-1.22.57l-.45.21-.65.31c-.34.16-.66.31-.97.47-.55.25-1.07.52-1.57.77-.54.25-1.04.52-1.59.8-.52.27-1.05.54-1.59.82-.45.25-.89.48-1.33.72-.48.26-.96.51-1.43.79-.54.29-1.06.59-1.56.88-1.67.95-3.1,1.83-4.39,2.65-.06.03-.1.07-.14.09h-.02s-.3.2-.3.2c-.39.25-.78.5-1.19.77l-.09.06c-.09.07-.19.12-.26.17l-.36.24c-.36.25-.74.5-1.1.75h-.02s-.02.03-.02.03l-.28.19-.26.19c-.18.11-.35.24-.52.36l-.12.09c-.3.2-.6.42-.89.63-.44.31-.88.62-1.3.94l-.18.13c-.65.49-1.31.99-1.93,1.48-1.06.82-2.14,1.7-3.29,2.66-.35.3-.71.59-1.05.9-.36.29-.68.58-1.06.91-.28.24-.55.48-.82.73l-.24.21c-1,.89-2.01,1.82-3.09,2.86-.4.35-.74.68-1.06,1-4.66,4.48-9.25,9.36-14.58,15.02-6.88,7.33-14.7,15.64-25.11,25.68-18.62,16.9-37.77,31.5-58.53,44.6-5.95,3.72-11.07,6.66-16.03,9.51-12.52,7.19-23.33,13.39-39,27.63-6.21,5.63-12.38,11.72-16.94,16.74-6.5,7.25-12.4,15.07-18.64,23.36-7.01,9.31-14.25,18.94-22.55,27.84l-.02.03-.02.03c-22.65,25.78-50.64,49.45-83.05,76.84-2.31,1.95-4.63,3.92-6.98,5.91-15.85,13.34-28.7,23.8-44.36,36.08-4.27,3.33-8.18,6.33-11.63,8.96-12.55,9.61-21.62,16.56-32.66,27.86-15.04,14.56-25.86,29.81-36.35,44.56-4.55,6.41-9.25,13.04-14.27,19.57-31.52,37.77-60.92,71.23-101.58,98.28-8.67,5.75-19.18,11.74-26.8,15.27-2.85,1.26-5.73,2.49-8.51,3.68-16.52,7.07-32.13,13.75-47.2,26.99-30.48,24.39-55.79,61.53-68.21,85.97-5.12,9.24-9.08,18.87-12.9,28.17-5.33,13-10.37,25.28-17.42,32.93l-.02.03-.03.03c-4.28,4.91-10.24,10.01-16.34,14.02-5.77,3.77-10.91,5.96-15.87,8.09-4.85,2.08-9.87,4.23-15.37,7.76-4.89,3.1-10.35,7.63-15.38,12.75-8.47,8.63-12.28,15.45-16.33,22.67-2.33,4.18-4.76,8.5-8.26,13.49-4.13,5.93-9.64,12.48-15.08,17.93-6.11,6.01-12.04,10.26-18.32,14.75-6.45,4.63-13.12,9.41-19.88,16.18-.78.69-3.54,2.48-7.01,4.74-11.49,7.47-35.39,23.03-67.05,48.83-.75.6-1.49,1.21-2.24,1.83-.17.13-.32.26-.46.38-1.4,1.14-2.82,2.31-4.24,3.5l-2.36,1.96c-.76.64-1.52,1.27-2.3,1.93l-.89.76c-1.33,1.12-2.67,2.26-4.02,3.43l-.88.75c-.34.29-.68.58-1.02.88-.58.49-1.22,1.04-1.92,1.66-.34.29-.68.58-1.02.88l-.86.75c-1.32,1.15-2.66,2.32-3.99,3.5-1.31,1.15-2.62,2.32-3.94,3.49-1.84,1.65-3.47,3.11-4.97,4.48l-1.75,1.58h-.02s-.03.04-.03.04l-.16.16c-.08.08-.15.15-.27.25l-1.95,1.78c-.64.6-1.29,1.19-1.94,1.79-.45.4-.89.82-1.34,1.23l-.64.6c-1.36,1.26-2.56,2.38-3.66,3.42-.73.67-1.45,1.36-2.18,2.04l-1.03.97c-1.97,1.87-4.13,3.93-6.62,6.32l-1.91,1.85c-.46.45-.93.91-1.39,1.36-1.03,1-2.05,2-3.1,3.03l-.26.26c-.94.91-1.87,1.84-2.81,2.77-3.56,3.51-6.86,6.84-10.1,10.15-1.13,1.15-2.3,2.34-3.44,3.53-2.37,2.43-4.78,4.93-7.16,7.44-.94.97-1.87,1.96-2.81,2.95l-.8.86c-.62.64-1.22,1.29-1.82,1.93-.62.66-1.23,1.3-1.82,1.94-.9.96-1.79,1.93-2.69,2.89l-.1.12c-4.21,4.53-8.49,9.25-12.75,14-.93,1.05-1.87,2.1-2.77,3.13-.63.69-1.25,1.4-1.85,2.08-1.02,1.17-2.06,2.33-3.08,3.51l-1.56,1.78-.31.35c-.19.24-.4.47-.61.72-1.15,1.32-2.3,2.63-3.45,3.97-.05.06-.1.13-.15.18l-.08.1-.02.02-.03.03c-2.2,2.56-4.52,5.21-6.92,7.88l-.91,1.01c-.64.71-1.28,1.42-1.94,2.15-.95,1.05-1.9,2.1-2.87,3.14l-.02.03-.03.02c-.17.19-.35.39-.53.58l-.02.03-.02.02c-1.77,1.93-3.6,3.88-5.45,5.81-.21.22-.42.45-.63.67-.22.23-.43.45-.64.68-.73.77-1.48,1.54-2.23,2.32l-.77.8c-.98,1.02-1.99,2.07-3.02,3.11l-.46.47c-.17.16-.33.32-.49.49l-.07.07-.02.03-.15.14c-2.07,2.12-3.79,3.84-5.39,5.42l-.35.35c-.24.23-.49.48-.73.72l-.41.41c-.14.14-.28.28-.44.43-.65.64-1.3,1.27-1.97,1.93-1.71,1.7-3.46,3.38-4.94,4.79-.91.89-1.82,1.76-2.76,2.64-2.06,1.97-4.32,4.1-7.13,6.71-1.12,1.04-2.25,2.09-3.43,3.16-.47.45-.97.9-1.47,1.36-2.34,2.13-4.5,4.09-6.61,5.99-1.19,1.05-2.36,2.1-3.56,3.16-1.18,1.04-2.37,2.1-3.56,3.14-.17.15-.34.3-.52.46-.16.14-.33.28-.51.43-1.08.95-2.15,1.88-3.24,2.82l-.42.38c-.8.69-1.6,1.39-2.41,2.08l-1.26,1.08-3.69,3.17c-.63.53-1.26,1.05-1.88,1.58-.63.53-1.25,1.06-1.88,1.58-1.16,1-2.34,1.97-3.52,2.96l-1.1.92c-1.29,1.07-2.58,2.14-3.87,3.21-2.45,2.02-5,4.1-7.8,6.37l-.66.53-.68.56-.14.11-.14.12-1.25,1.01-1.24,1-.28.23-.22.29c-.92,1.25-1.9,2.46-2.89,3.56-2.34,2.65-4.94,5.01-7.68,7.52-2.6,2.36-5.28,4.81-7.73,7.51-6.05,6.7-10.37,14.65-14.19,21.66-29.83,54.89-57.11,111.96-81.06,169.63-15.23,36.68-30.08,76.21-35.47,116.83-1.71,12.8-2.42,25.39-2.11,37.41.38,14.48,2.24,28.98,5.53,43.08.15.65.3,1.31.46,1.97,1.76,7.41,3.57,15.07,1.43,21.88-1.63,5.15-7.03,9.5-11.81,9.5-1.41,0-2.72-.38-3.89-1.14-12.48-7.98-12.88-25.24-13.26-41.94-.06-2.67-.12-5.45-.24-8.09-.6-13.53-3.59-26.87-6.48-39.76-1.69-7.53-3.44-15.31-4.67-22.99-.6-3.75-1.03-7.12-1.33-10.33-2.92-31.83,6.1-63.6,14.83-94.31,5.12-18,10.42-36.63,13.36-55.31,1.47-9.22,2.48-19.13,3.18-31.2v-.1c.5-8.32.8-16.79,1.08-24.98.58-16.29,1.17-33.14,3.32-49.49,6.01-45.57,24.68-86.33,52.58-114.77,7.99-8.15,16.94-15.62,25.58-22.84,6.29-5.25,12.78-10.67,18.92-16.35,12.59-11.65,19.57-23.68,26.96-36.44,1.86-3.2,3.79-6.52,5.84-9.91.19-.31.38-.61.6-.96,1.03-1.59,2.2-3.19,3.49-4.78,7.21-8.87,17.84-16.95,28.12-24.77,5.96-4.53,11.6-8.82,16.57-13.22.49-.45,1-.9,1.48-1.34,1.14-1.05,2.63-2.42,4.12-3.83l.37-.34c.27-.25.55-.51.79-.74.41-.38.8-.75,1.19-1.12,1.23-1.17,2.47-2.34,3.68-3.51.56-.53,1.12-1.08,1.66-1.6.61-.57,1.21-1.17,1.79-1.74,1.18-1.16,2.36-2.33,3.52-3.49.75-.72,1.48-1.45,2.21-2.2l1.08-1.1c.73-.74,1.46-1.48,2.16-2.2.73-.73,1.47-1.49,2.24-2.32,1.05-1.09,2.11-2.21,3.15-3.31.72-.76,1.44-1.53,2.15-2.3,1.06-1.14,2.11-2.29,3.14-3.41.66-.72,1.33-1.46,2-2.24,1.14-1.25,2.27-2.55,3.37-3.81l.22-.25c.18-.2.36-.41.54-.61l.04-.04.03-.03c.46-.53.91-1.05,1.32-1.54.66-.76,1.31-1.52,1.93-2.27.81-.96,1.63-1.93,2.42-2.89,1.91-2.32,3.62-4.36,5.2-6.23l.02-.03.03-.03c.21-.26.43-.53.66-.79.26-.3.52-.61.77-.9l1.9-2.24.86-1.01c.34-.4.69-.81,1.04-1.22.51-.61,1.04-1.22,1.59-1.84,1.19-1.38,2.38-2.74,3.55-4.1l.28-.31c.1-.13.22-.25.32-.37.12-.14.24-.28.36-.41.19-.24.4-.46.59-.68l.08-.09c.94-1.06,1.88-2.12,2.81-3.17l1.76-1.98c.35-.4.7-.78,1.06-1.2,1.33-1.47,3.08-3.42,4.85-5.36l.13-.13c.85-.93,1.69-1.86,2.57-2.79l.06-.07c.87-.94,1.73-1.87,2.6-2.81,1.65-1.79,3.39-3.63,5.31-5.65l.02-.03.02-.02c.1-.11.22-.22.32-.34l.21-.21c1.68-1.78,3.36-3.53,5.04-5.26l.13-.13v-.03s.05-.03.05-.03c.88-.9,1.74-1.79,2.6-2.68,2.73-2.8,5.41-5.51,7.97-8.04,1.42-1.41,2.82-2.8,4.22-4.18l1.03-1.01c.96-.94,1.93-1.87,2.88-2.8,1.66-1.59,3.3-3.16,4.91-4.71.86-.81,1.72-1.63,2.57-2.43,1.12-1.05,2.25-2.1,3.36-3.14.73-.68,1.47-1.37,2.24-2.06l.37-.35.38-.35.03-.04.04-.03.07-.07s.02-.03.04-.04l1.06-.8v-.18c.27-.25.54-.49.83-.75.36-.33.71-.66,1.08-.99l.04-.03.02-.02c.13-.12.26-.23.39-.34l.06-.07c.25-.23.5-.46.75-.67l.06-.06c.81-.74,1.63-1.48,2.43-2.2l1.87-1.67.15-.15c45.58-40.68,83.42-64.54,101.61-76,6.62-4.17,10.61-6.68,12.42-8.33l.03-.02.02-.02c5.69-5.45,9.5-9.66,13.19-13.71,5.19-5.72,10.09-11.12,19.81-19.57,4.74-4.13,9.8-8.35,14.64-12.18,7.69-6.19,39.37-30.87,68.03-51.44,21.84-15.09,40.87-29.35,52.67-50.86,6.18-11.16,14.66-22.68,21.63-29.34,2.34-2.09,4.71-4.16,7.01-6.17,8.1-7.08,16.48-14.39,23.87-23.29,4-4.22,7.23-9.03,10.35-13.69,4.82-7.22,9.37-14.03,16.43-18.36l.02-.02h.03c2.33-1.52,4.93-2.85,7.67-4.26,5.87-3,12.52-6.4,17.63-12.36,5.03-5.44,6.65-11.78,8.23-17.93.65-2.49,1.3-5.07,2.2-7.58v-.03l.02-.04c1.29-4,3.69-8.08,6.01-12.03,2.34-3.99,4.55-7.75,5.65-11.41l.02-.05v-.05c1.63-6.18,1.06-12.3.5-18.22-.35-3.8-.72-7.73-.48-11.55v-.12s.01-.12.01-.12c-.02-1.33-.02-2.64-.01-3.91,0-5.51.01-10.7-2.28-16.24-.77-1.91-1.73-3.7-2.66-5.42-1.16-2.18-2.26-4.24-2.93-6.34-3-9.97,6.11-22.64,16.28-27.3,4.86-2.28,9.71-3.41,14.8-3.48h.4c9.41,0,19.41,3.72,31.47,11.7l.1.06.09.06c10.79,5.95,26.62,13.86,39.48,13.86,10.43,0,17.33-5.26,19.97-15.19,2.18-7.16,7.43-11.24,13-15.54,3.48-2.69,7.08-5.47,10.12-9.12,9.08-10.32,19.43-20.53,29.44-30.4,8.26-8.14,16.8-16.57,24.56-24.99l.07-.07.06-.08c1.6-2,3.14-4.21,4.76-6.53,3.07-4.37,6.23-8.89,9.59-11.76l.03-.02.02-.03c3.45-3.1,7.69-5.13,12.18-7.28.74-.36,1.48-.72,2.22-1.08h.03s.04-.03.04-.03c17.09-8.9,32.58-25.73,46.03-50,10.94-16.93,35.2-35.78,63.43-56.9l4.91-3.68c15.72-11.73,31.97-23.87,45.76-35.85,7.71-6.71,13.59-11.8,20.4-17.7l6.11-5.29c9.73-8.38,20.64-18,32.4-28.55.4-.36.8-.73,1.21-1.08,1.85-1.66,3.7-3.33,5.56-5.01,8.77-7.91,17.71-16.09,26.59-24.3.48-.44.95-.87,1.45-1.33.49-.44.97-.88,1.49-1.35.49-.45.99-.9,1.49-1.36.3-.27.59-.55.89-.81l.03-.02.02-.02c.71-.64,1.42-1.3,2.14-1.95l.7-.62c.4-.36.81-.73,1.24-1.11.84-.75,1.69-1.52,2.53-2.29,25.69-23.02,60.18-52.6,90.61-78.69l1.42-1.21c1.01-.88,2.03-1.75,3.05-2.62,1.17-1.02,2.34-2.01,3.49-3,26.71-4.89,50.34-20.47,65.85-31.82,6.72-4.9,13.4-10.11,19.84-15.15,14.38-11.2,29.23-22.79,45.33-31.66,24.34-13.42,51.72-20.84,78.19-28.01l63.93-17.35c16.07-4.36,34.29-9.32,52.06-9.78.89-.03,1.79-.03,2.68-.03,1.74,0,3.51.04,5.28.14,15.42.8,30.66,5.43,45.4,9.91,6.38,1.94,12.99,3.95,19.57,5.63,2.14.55,4.33,1.08,6.44,1.59,8.95,2.17,18.21,4.41,26.19,8.81,8.1,4.47,14.93,11.11,21.53,17.54,26.22,25.51,58.86,57.28,68.23,97.46,3.23,13.84,3.63,27.86,3.79,43.43.13,12.83.11,25.85-.06,38.67Z" style="fill: blue;"/>
  </g>
</svg>